<?xml version="1.0" standalone="no"?>
<!DOCTYPE svg PUBLIC "-//W3C//DTD SVG 20010904//EN"
 "http://www.w3.org/TR/2001/REC-SVG-20010904/DTD/svg10.dtd">
<svg version="1.0" xmlns="http://www.w3.org/2000/svg"
 width="920.000000pt" height="920.000000pt" viewBox="0 0 920.000000 920.000000"
 preserveAspectRatio="xMidYMid meet">
<metadata>
Created by potrace 1.11, written by Peter Selinger 2001-2013
</metadata>
<g transform="translate(0.000000,920.000000) scale(0.100000,-0.100000)"
fill="#000000" stroke="none">
<path d="M4569 7366 c-2 -2 -33 -7 -69 -10 -353 -36 -688 -143 -990 -316 -107
-62 -289 -189 -379 -266 -144 -123 -355 -361 -456 -517 -33 -51 -55 -75 -65
-72 -8 2 -35 7 -60 10 -24 4 -47 8 -50 10 -25 15 -357 23 -493 11 -400 -33
-800 -186 -1127 -430 -317 -237 -543 -527 -715 -919 -48 -111 -118 -361 -140
-502 -27 -178 -27 -532 0 -665 3 -14 8 -41 11 -60 10 -66 56 -245 86 -330 182
-522 568 -968 1058 -1222 217 -113 486 -200 690 -224 30 -4 58 -12 62 -18 4
-8 758 -11 2890 -10 2586 1 2959 3 3033 19 11 2 38 7 60 10 43 6 46 7 205 56
93 29 241 96 325 146 217 131 429 352 556 581 47 85 121 260 134 314 2 13 12
50 20 83 42 166 55 460 26 605 -43 210 -69 293 -140 440 -58 120 -84 163 -161
265 -216 284 -518 486 -852 571 -110 28 -123 30 -238 44 -73 8 -310 6 -360 -4
-14 -2 -43 -7 -65 -10 -22 -3 -58 -10 -80 -16 -54 -13 -51 -14 -52 18 0 67
-17 254 -28 312 -3 14 -8 41 -11 60 -3 19 -9 51 -14 70 -5 19 -11 46 -13 60
-25 140 -133 424 -234 610 -147 274 -389 561 -639 760 -46 37 -191 140 -214
152 -14 7 -43 25 -65 39 -56 36 -266 140 -349 173 -135 53 -373 122 -459 132
-15 2 -39 6 -54 8 -14 3 -47 8 -72 12 -25 3 -57 8 -71 11 -31 6 -435 15 -441
9z"/>
</g>
</svg>
