<svg xmlns="http://www.w3.org/2000/svg" viewBox="0 0 146 146"><defs><style>.a{fill:#fff;}.b,.c{fill:#4b4e6b;}.c{font-size:13px;font-family:WorkSans-ExtraBold, Work Sans;font-weight:800;letter-spacing:-0.05em;}</style></defs><g transform="translate(-1186 -71)"><rect class="a" width="146" height="146" transform="translate(1186 71)"/><g transform="translate(1213.477 104.651)"><ellipse class="b" cx="21.947" cy="21.947" rx="21.947" ry="21.947" transform="translate(0 11.465)"/><ellipse class="b" cx="24.895" cy="24.895" rx="24.895" ry="24.895" transform="translate(22.602 0)"/><ellipse class="b" cx="15.723" cy="15.723" rx="15.723" ry="15.723" transform="translate(60.6 23.912)"/><rect class="b" width="56.341" height="23.912" transform="translate(19.326 31.446)"/></g><text class="c" transform="translate(1221.288 178.342)"><tspan x="0" y="0">BLUE CLOUD</tspan></text><path class="a" d="M16.9,16.9a7.952,7.952,0,0,1,15.9,0Zm0,0a8.023,8.023,0,0,1-7.952,7.952A8.023,8.023,0,0,1,1,16.9Zm0,0A8.023,8.023,0,0,1,8.952,8.952,8.023,8.023,0,0,1,16.9,1Zm0,0a7.952,7.952,0,1,1,0,15.9Z" transform="translate(1241.979 119.741)"/></g></svg>