<svg xmlns="http://www.w3.org/2000/svg" viewBox="0 0 146 146"><defs><style>.a{fill:#fff;}.b,.c{fill:#4b4e6b;}.c{font-size:11px;font-family:WorkSans-ExtraBold, Work Sans;font-weight:800;letter-spacing:-0.05em;}</style></defs><g transform="translate(-1186 -71)"><rect class="a" width="146" height="146" transform="translate(1186 71)"/><g transform="translate(1222.631 112.4)"><ellipse class="b" cx="17.582" cy="17.582" rx="17.582" ry="17.582" transform="translate(0 9.185)"/><ellipse class="b" cx="19.944" cy="19.944" rx="19.944" ry="19.944" transform="translate(18.107 0)"/><ellipse class="b" cx="12.596" cy="12.596" rx="12.596" ry="12.596" transform="translate(48.547 19.156)"/><rect class="b" width="45.135" height="19.156" transform="translate(15.482 25.192)"/></g><text class="c" transform="translate(1227.286 171.82)"><tspan x="0" y="0">BLUE CLOUD</tspan></text><path class="a" d="M13.741,13.741a6.37,6.37,0,1,1,12.741,0Zm0,0a6.427,6.427,0,0,1-6.37,6.37A6.427,6.427,0,0,1,1,13.741Zm0,0A6.427,6.427,0,0,1,7.37,7.37,6.427,6.427,0,0,1,13.741,1Zm0,0a6.37,6.37,0,0,1,0,12.741Z" transform="translate(1245.265 124.29)"/></g></svg>