<svg xmlns="http://www.w3.org/2000/svg" viewBox="0 0 39.78 39.779">
  <defs>
    <style>
      .cls-1 {
        fill: #83859e;
        stroke: #fff;
        stroke-width: 2px;
      }

      .cls-2, .cls-3, .cls-6 {
        fill: #fff;
      }

      .cls-4, .cls-6 {
        stroke: none;
      }

      .cls-5 {
        fill: none;
      }
    </style>
  </defs>
  <g id="neerslag_circle" transform="translate(-109.45 -499)">
    <g id="Group_170" data-name="Group 170" transform="translate(109.45 499)">
      <g id="Ellipse_8" data-name="Ellipse 8" class="cls-1">
        <ellipse class="cls-4" cx="19.89" cy="19.89" rx="19.89" ry="19.89"/>
        <ellipse class="cls-5" cx="19.89" cy="19.89" rx="18.89" ry="18.89"/>
      </g>
    </g>
    <path id="ic_wb_cloudy_24px" class="cls-2" d="M18.631,9.812A7.217,7.217,0,0,0,5.148,7.888,5.772,5.772,0,0,0,5.774,19.4h12.51a4.8,4.8,0,0,0,.346-9.585Z" transform="translate(117.219 504.501)"/>
    <g id="Path_65" data-name="Path 65" class="cls-3" transform="translate(122.087 525.759)">
      <path class="cls-4" d="M 1.661914110183716 2.844839096069336 C 1.309814095497131 2.844839096069336 0.9158340692520142 2.836619138717651 0.6969940662384033 2.738479137420654 C 0.6161940693855286 2.702249050140381 0.5156240463256836 2.657149076461792 0.5156240463256836 2.351839065551758 C 0.5156240463256836 1.959622025489807 1.121320843696594 1.214707016944885 1.667163848876953 0.6772344708442688 C 2.242332696914673 1.226525545120239 2.860464096069336 1.976099014282227 2.860464096069336 2.351839065551758 C 2.860464096069336 2.649289131164551 2.754094123840332 2.694978952407837 2.660233974456787 2.735289096832275 C 2.436074018478394 2.831568956375122 2.047954082489014 2.844839096069336 1.661914110183716 2.844839096069336 Z"/>
      <path class="cls-6" d="M 1.661914110183716 2.344839096069336 C 2.020009517669678 2.344839096069336 2.225943565368652 2.328540325164795 2.343580961227417 2.308295249938965 C 2.269708156585693 2.106249809265137 2.006341218948364 1.75373387336731 1.67343270778656 1.394344210624695 C 1.346902966499329 1.759496688842773 1.091673731803894 2.115828037261963 1.028018832206726 2.31434965133667 C 1.159965872764587 2.334609746932983 1.372062802314758 2.344839096069336 1.661914110183716 2.344839096069336 M 1.661914110183716 3.344839096069336 C 0.7382640838623047 3.344839096069336 0.01562407147139311 3.275489091873169 0.01562407147139311 2.351839065551758 C 0.01562407147139311 1.428189039230347 1.661914110183716 -9.288024784837035e-07 1.661914110183716 -9.288024784837035e-07 C 1.661914110183716 -9.288024784837035e-07 3.360464096069336 1.428189039230347 3.360464096069336 2.351839065551758 C 3.360464096069336 3.275489091873169 2.585564136505127 3.344839096069336 1.661914110183716 3.344839096069336 Z"/>
    </g>
    <g id="Path_66" data-name="Path 66" class="cls-3" transform="translate(127.104 527.431)">
      <path class="cls-4" d="M 1.661914110183716 2.844839096069336 C 1.309814095497131 2.844839096069336 0.9158340692520142 2.836619138717651 0.6969940662384033 2.738479137420654 C 0.6161940693855286 2.702249050140381 0.5156240463256836 2.657149076461792 0.5156240463256836 2.351839065551758 C 0.5156240463256836 1.959622025489807 1.121320843696594 1.214707016944885 1.667163848876953 0.6772344708442688 C 2.242332696914673 1.226525545120239 2.860464096069336 1.976099014282227 2.860464096069336 2.351839065551758 C 2.860464096069336 2.649289131164551 2.754094123840332 2.694978952407837 2.660233974456787 2.735289096832275 C 2.436074018478394 2.831568956375122 2.047954082489014 2.844839096069336 1.661914110183716 2.844839096069336 Z"/>
      <path class="cls-6" d="M 1.661914110183716 2.344839096069336 C 2.020009517669678 2.344839096069336 2.225943565368652 2.328540325164795 2.343580961227417 2.308295249938965 C 2.269708156585693 2.106249809265137 2.006341218948364 1.75373387336731 1.67343270778656 1.394344210624695 C 1.346902966499329 1.759496688842773 1.091673731803894 2.115828037261963 1.028018832206726 2.31434965133667 C 1.159965872764587 2.334609746932983 1.372062802314758 2.344839096069336 1.661914110183716 2.344839096069336 M 1.661914110183716 3.344839096069336 C 0.7382640838623047 3.344839096069336 0.01562407147139311 3.275489091873169 0.01562407147139311 2.351839065551758 C 0.01562407147139311 1.428189039230347 1.661914110183716 -9.288024784837035e-07 1.661914110183716 -9.288024784837035e-07 C 1.661914110183716 -9.288024784837035e-07 3.360464096069336 1.428189039230347 3.360464096069336 2.351839065551758 C 3.360464096069336 3.275489091873169 2.585564136505127 3.344839096069336 1.661914110183716 3.344839096069336 Z"/>
    </g>
    <g id="Path_67" data-name="Path 67" class="cls-3" transform="translate(132.122 524.086)">
      <path class="cls-4" d="M 1.661914110183716 2.844839096069336 C 1.309814095497131 2.844839096069336 0.9158340692520142 2.836619138717651 0.6969940662384033 2.738479137420654 C 0.6161940693855286 2.702249050140381 0.5156240463256836 2.657149076461792 0.5156240463256836 2.351839065551758 C 0.5156240463256836 1.959622025489807 1.121320843696594 1.214707016944885 1.667163848876953 0.6772344708442688 C 2.242332696914673 1.226525545120239 2.860464096069336 1.976099014282227 2.860464096069336 2.351839065551758 C 2.860464096069336 2.649289131164551 2.754094123840332 2.694978952407837 2.660233974456787 2.735289096832275 C 2.436074018478394 2.831568956375122 2.047954082489014 2.844839096069336 1.661914110183716 2.844839096069336 Z"/>
      <path class="cls-6" d="M 1.661914110183716 2.344839096069336 C 2.020009517669678 2.344839096069336 2.225943565368652 2.328540325164795 2.343580961227417 2.308295249938965 C 2.269708156585693 2.106249809265137 2.006341218948364 1.75373387336731 1.67343270778656 1.394344210624695 C 1.346902966499329 1.759496688842773 1.091673731803894 2.115828037261963 1.028018832206726 2.31434965133667 C 1.159965872764587 2.334609746932983 1.372062802314758 2.344839096069336 1.661914110183716 2.344839096069336 M 1.661914110183716 3.344839096069336 C 0.7382640838623047 3.344839096069336 0.01562407147139311 3.275489091873169 0.01562407147139311 2.351839065551758 C 0.01562407147139311 1.428189039230347 1.661914110183716 -9.288024784837035e-07 1.661914110183716 -9.288024784837035e-07 C 1.661914110183716 -9.288024784837035e-07 3.360464096069336 1.428189039230347 3.360464096069336 2.351839065551758 C 3.360464096069336 3.275489091873169 2.585564136505127 3.344839096069336 1.661914110183716 3.344839096069336 Z"/>
    </g>
  </g>
</svg>
