<svg xmlns="http://www.w3.org/2000/svg" viewBox="0 0 18.676 19.2"><path d="M18.744,12.541a7.481,7.481,0,0,0,.067-.941,7.481,7.481,0,0,0-.067-.941l2.026-1.584a.484.484,0,0,0,.115-.614l-1.92-3.322a.483.483,0,0,0-.586-.211l-2.39.96a7.014,7.014,0,0,0-1.622-.941L14,2.4a.468.468,0,0,0-.47-.4H9.691a.468.468,0,0,0-.47.4L8.856,4.947a7.376,7.376,0,0,0-1.622.941l-2.39-.96a.468.468,0,0,0-.586.211L2.337,8.461a.473.473,0,0,0,.115.614l2.026,1.584a7.613,7.613,0,0,0-.067.941,7.613,7.613,0,0,0,.067.941L2.452,14.125a.484.484,0,0,0-.115.614l1.92,3.322a.483.483,0,0,0,.586.211l2.39-.96a7.014,7.014,0,0,0,1.622.941L9.22,20.8a.468.468,0,0,0,.47.4h3.84a.468.468,0,0,0,.47-.4l.365-2.544a7.376,7.376,0,0,0,1.622-.941l2.39.96a.468.468,0,0,0,.586-.211l1.92-3.322a.484.484,0,0,0-.115-.614ZM11.611,14.96a3.36,3.36,0,1,1,3.36-3.36A3.364,3.364,0,0,1,11.611,14.96Z" transform="translate(-2.271 -2)"/></svg>