<svg xmlns="http://www.w3.org/2000/svg" viewBox="0 0 39.783 39.783">
  <defs>
    <style>
      .cls-1 {
        fill: #83859e;
      }

      .cls-1, .cls-2, .cls-3 {
        stroke: #fff;
      }

      .cls-1, .cls-2 {
        stroke-width: 2px;
      }

      .cls-2, .cls-5 {
        fill: none;
      }

      .cls-3 {
        fill: #fff;
      }

      .cls-4 {
        stroke: none;
      }
    </style>
  </defs>
  <g id="temperature_circle" transform="translate(606.891 -1994.217)">
    <g id="Ellipse_29" data-name="Ellipse 29" class="cls-1" transform="translate(-606.891 1994.217)">
      <ellipse class="cls-4" cx="19.891" cy="19.891" rx="19.891" ry="19.891"/>
      <ellipse class="cls-5" cx="19.891" cy="19.891" rx="18.891" ry="18.891"/>
    </g>
    <g id="Group_166" data-name="Group 166" transform="translate(-592.161 2002.888)">
      <path id="Path_37" data-name="Path 37" class="cls-2" d="M488.664,103.158c.053.8,0,10.006,0,10.006a4.74,4.74,0,0,0-1.65,3.832,5.165,5.165,0,0,0,5.376,4.843A4.885,4.885,0,0,0,497.18,117a6.674,6.674,0,0,0-1.756-3.832V103.158s-.213-3.247-3.034-3.247A3.586,3.586,0,0,0,488.664,103.158Z" transform="translate(-487.01 -99.912)"/>
      <path id="Path_38" data-name="Path 38" class="cls-2" d="M493.9,112.383v7.824" transform="translate(-488.812 -103.175)"/>
      <g id="Ellipse_9" data-name="Ellipse 9" class="cls-3" transform="translate(2.946 14.832)">
        <ellipse class="cls-4" cx="2.215" cy="2.215" rx="2.215" ry="2.215"/>
        <ellipse class="cls-5" cx="2.215" cy="2.215" rx="1.715" ry="1.715"/>
      </g>
    </g>
  </g>
</svg>
