<svg xmlns="http://www.w3.org/2000/svg" viewBox="0 0 32.247 32.1">
  <path id="uv-normal" d="M4.738,26.919,6.8,28.986l2.638-2.624L7.361,24.281m8.3,8.369h2.932V28.326H15.658M17.123,7.805A8.795,8.795,0,1,0,25.918,16.6a8.795,8.795,0,0,0-8.795-8.795m11.726,10.26h4.4V15.134h-4.4M24.8,26.362l2.638,2.624,2.067-2.067-2.624-2.638m2.624-18L27.442,4.214,24.8,6.838l2.081,2.081M18.589.55H15.658V4.874h2.932M5.4,15.134H1v2.932H5.4M9.443,6.838,6.8,4.214,4.738,6.281,7.361,8.919Z" transform="translate(-1 -0.55)"/>
</svg>
