<svg xmlns="http://www.w3.org/2000/svg" viewBox="0 0 39.783 39.783">
  <defs>
    <style>
      .cls-1 {
        fill: #83859e;
        stroke: #fff;
        stroke-width: 2px;
      }

      .cls-2 {
        fill: #fff;
      }

      .cls-3 {
        stroke: none;
      }

      .cls-4 {
        fill: none;
      }
    </style>
  </defs>
  <g id="windspeed_circle" transform="translate(-111.109 -427.217)">
    <g id="Ellipse_8" data-name="Ellipse 8" class="cls-1" transform="translate(111.109 427.217)">
      <ellipse class="cls-3" cx="19.891" cy="19.891" rx="19.891" ry="19.891"/>
      <ellipse class="cls-4" cx="19.891" cy="19.891" rx="18.891" ry="18.891"/>
    </g>
    <path id="weather-windy" class="cls-2" d="M3.97,9.761a.97.97,0,1,1,0-1.94h7.761a1.94,1.94,0,0,0,0-3.881,1.9,1.9,0,0,0-1.368.572.944.944,0,0,1-1.378,0,.978.978,0,0,1,0-1.378,3.881,3.881,0,1,1,2.745,6.626H3.97M18.522,11.7a.97.97,0,1,0-.689-1.659.966.966,0,0,1-1.368,0,.984.984,0,0,1,0-1.368,2.91,2.91,0,1,1,2.057,4.967H4.94a.97.97,0,0,1,0-1.94H18.522m-.97,5.821H3.97a.97.97,0,1,1,0-1.94H17.552A2.91,2.91,0,1,1,15.5,20.549a.984.984,0,0,1,0-1.368.966.966,0,0,1,1.368,0,.972.972,0,1,0,.689-1.659Z" transform="translate(119.284 435.299)"/>
  </g>
</svg>
