<svg xmlns="http://www.w3.org/2000/svg" viewBox="0 0 22.324 23.499">
  <path id="wind-normal" d="M4.175,11.4a1.175,1.175,0,1,1,0-2.35h9.4a2.35,2.35,0,1,0,0-4.7,2.3,2.3,0,0,0-1.657.693,1.144,1.144,0,0,1-1.668,0,1.184,1.184,0,0,1,0-1.668A4.7,4.7,0,1,1,13.575,11.4h-9.4M21.8,13.75a1.175,1.175,0,1,0-.834-2.009,1.17,1.17,0,0,1-1.657,0,1.192,1.192,0,0,1,0-1.657A3.524,3.524,0,1,1,21.8,16.1H5.35a1.175,1.175,0,1,1,0-2.35H21.8M20.624,20.8H4.175a1.175,1.175,0,1,1,0-2.35h16.45a3.525,3.525,0,1,1-2.491,6.016,1.192,1.192,0,0,1,0-1.657,1.17,1.17,0,0,1,1.657,0,1.177,1.177,0,1,0,.834-2.009Z" transform="translate(-3 -2)"/>
</svg>
