<?xml version="1.0" encoding="UTF-8"?>
<svg width="773px" height="330px" viewBox="0 0 773 330" version="1.1" xmlns="http://www.w3.org/2000/svg" xmlns:xlink="http://www.w3.org/1999/xlink">
    <!-- Generator: Sketch 43.1 (39012) - http://www.bohemiancoding.com/sketch -->
    <title>product-cover-payments</title>
    <desc>Created with Sketch.</desc>
    <defs>
        <rect id="path-1" x="0" y="0" width="332.121927" height="330" rx="11.3642245"></rect>
        <filter x="-18.5%" y="-13.2%" width="137.0%" height="137.3%" filterUnits="objectBoundingBox" id="filter-2">
            <feOffset dx="0" dy="18" in="SourceAlpha" result="shadowOffsetOuter1"></feOffset>
            <feGaussianBlur stdDeviation="17.5" in="shadowOffsetOuter1" result="shadowBlurOuter1"></feGaussianBlur>
            <feColorMatrix values="0 0 0 0 0   0 0 0 0 0   0 0 0 0 0  0 0 0 0.2 0" type="matrix" in="shadowBlurOuter1"></feColorMatrix>
        </filter>
    </defs>
    <g id="Assets" stroke="none" stroke-width="1" fill="none" fill-rule="evenodd">
        <g id="product-cover-payments">
            <g id="Group-19">
                <g id="Group-20" opacity="0.400000006" transform="translate(496.763566, 28.205128)">
                    <rect id="Rectangle" fill="#FFFFFF" opacity="0.949999988" x="0" y="0" width="275.348948" height="273.589744" rx="11.3642245"></rect>
                    <ellipse id="Oval-10" fill="#0094FF" cx="138.340853" cy="168.469231" rx="37.5688153" ry="37.3153846"></ellipse>
                    <polygon id="Combined-Shape" fill="#FFFFFF" points="133.212034 175.360698 125.649035 167.84602 123.481229 169.999976 132.697715 179.157577 132.879206 178.977245 133.394304 179.489052 152.904559 160.103448 150.735974 157.948718"></polygon>
                    <path d="M0,11.3598568 C0,5.08598115 5.08878589,0 11.3722662,0 L263.976682,0 C270.257411,0 275.348948,5.08524364 275.348948,11.3598568 L275.348948,76.1538462 L0,76.1538462 L0,11.3598568 Z" id="Rectangle" fill="#FFFFFF"></path>
                    <path d="M111.981273,37.9512684 L115.781186,37.9512684 L115.781186,47.6108597 L117.183957,47.6108597 L117.183957,37.9512684 L120.98387,37.9512684 L120.98387,36.7083062 L111.981273,36.7083062 L111.981273,37.9512684 Z M124.038006,39.7269285 L122.706261,39.7269285 L122.706261,47.6108597 L124.038006,47.6108597 L124.038006,39.7269285 Z M124.233328,37.3475439 C124.233328,36.8681157 123.842683,36.495227 123.363255,36.495227 C122.901583,36.495227 122.510938,36.8681157 122.510938,37.3475439 C122.510938,37.8092156 122.901583,38.1998608 123.363255,38.1998608 C123.842683,38.1998608 124.233328,37.8092156 124.233328,37.3475439 Z M125.849179,43.6688941 C125.849179,46.1193052 127.322977,47.7706691 129.436013,47.7706691 C131.211673,47.7706691 132.330339,46.7407862 132.596688,45.2314751 L131.229429,45.2314751 C131.051863,46.083792 130.377113,46.5987334 129.436013,46.5987334 C128.086511,46.5987334 127.198681,45.3912845 127.198681,43.6688941 C127.198681,41.9465038 128.086511,40.7390548 129.436013,40.7390548 C130.377113,40.7390548 131.051863,41.2539963 131.229429,42.1063132 L132.596688,42.1063132 C132.330339,40.597002 131.211673,39.5671191 129.436013,39.5671191 C127.322977,39.5671191 125.849179,41.2184831 125.849179,43.6688941 Z M139.521762,47.6108597 L141.15537,47.6108597 L137.479753,43.1361961 L141.031074,39.7269285 L139.27317,39.7269285 L135.66858,43.2249791 L135.66858,36.0690686 L134.336835,36.0690686 L134.336835,47.6108597 L135.66858,47.6108597 L135.66858,44.78756 L136.520897,43.9707564 L139.521762,47.6108597 Z M147.547746,45.2492317 L148.808465,45.2492317 C148.52436,46.7407862 147.405694,47.7706691 145.630033,47.7706691 C143.481485,47.7706691 142.007687,46.1193052 142.007687,43.6866507 C142.007687,41.3250227 143.445971,39.5671191 145.59452,39.5671191 C147.760826,39.5671191 148.915005,41.1474567 148.915005,43.4380583 L148.915005,43.9174866 L143.339432,43.9174866 C143.357188,45.6043637 144.298288,46.6342466 145.630033,46.6342466 C146.606647,46.6342466 147.334667,46.1370618 147.547746,45.2492317 Z M145.612277,40.7035416 C144.422585,40.7035416 143.570268,41.5203453 143.374945,42.9053603 L147.565503,42.9053603 C147.547746,41.7334245 146.926265,40.7035416 145.612277,40.7035416 Z M151.063554,45.6221203 C151.063554,47.0781617 151.951384,47.7706691 153.229859,47.7706691 C153.709287,47.7706691 154.170959,47.6641295 154.472821,47.5043201 L154.472821,46.261358 C154.206472,46.438924 153.815827,46.5809768 153.442938,46.5809768 C152.768187,46.5809768 152.395299,46.2436014 152.395299,45.4800675 L152.395299,40.8633511 L154.295255,40.8633511 L154.295255,39.7269285 L152.395299,39.7269285 L152.395299,37.6494061 L151.063554,37.6494061 L151.063554,39.7269285 L149.785078,39.7269285 L149.785078,40.8633511 L151.063554,40.8633511 L151.063554,45.6221203 Z M155.662513,45.4445543 C155.911106,46.9005957 157.171825,47.7706691 158.894215,47.7706691 C160.581092,47.7706691 161.824054,46.8828391 161.824054,45.3912845 C161.824054,44.2903752 161.16706,43.5445979 159.817558,43.1894659 L158.290491,42.8165773 C157.544713,42.603498 157.189581,42.3549056 157.189581,41.8222076 C157.189581,41.0586737 157.917602,40.685785 158.698892,40.685785 C159.657749,40.685785 160.208204,41.0941869 160.439039,41.8044509 L161.770785,41.8044509 C161.486679,40.419436 160.456796,39.5671191 158.716649,39.5671191 C157.118555,39.5671191 155.893349,40.4904624 155.893349,41.893234 C155.893349,43.1184395 156.67464,43.6866507 157.793306,43.9707564 L159.355887,44.3791582 C160.17269,44.5922374 160.527822,44.9296129 160.527822,45.4800675 C160.527822,46.2791146 159.853072,46.6520032 158.911972,46.6520032 C157.988628,46.6520032 157.296121,46.261358 157.047528,45.4445543 L155.662513,45.4445543 Z" id="Tickets" fill="#000000"></path>
                </g>
                <g id="Group-17" opacity="0.400000006" transform="translate(0.000000, 28.205128)">
                    <rect id="Rectangle" fill="#FFFFFF" opacity="0.949999988" x="0" y="0" width="275.348948" height="273.589744" rx="11.3642245"></rect>
                    <path d="M0,211.764706 L332.121927,211.764706 L332.121927,262.45288 C332.121927,268.728551 327.037987,273.815988 320.761633,273.815988 L11.3602942,273.815988 C5.08617695,273.815988 0,268.724895 0,262.45288 L0,211.764706 Z" id="Rectangle" fill="#FAFCFF"></path>
                    <path d="M151.958124,242.841745 C152.988007,243.179121 153.733784,244.191247 153.733784,245.345426 C153.733784,247.387436 152.313256,248.470588 150.040411,248.470588 L145.86761,248.470588 L145.86761,237.568035 L149.685279,237.568035 C151.958124,237.568035 153.378652,238.580161 153.378652,240.533387 C153.378652,241.705323 152.757171,242.55764 151.958124,242.841745 Z M147.661026,242.149238 L149.667522,242.149238 C150.928241,242.149238 151.602992,241.66981 151.602992,240.639927 C151.602992,239.610044 150.928241,239.166129 149.667522,239.166129 L147.661026,239.166129 L147.661026,242.149238 Z M147.661026,243.676306 L147.661026,246.872494 L150.004898,246.872494 C151.24786,246.872494 151.922611,246.251013 151.922611,245.2744 C151.922611,244.28003 151.24786,243.676306 150.004898,243.676306 L147.661026,243.676306 Z M163.580287,248.648154 C166.190508,248.648154 167.948411,247.121087 167.948411,244.137977 L167.948411,237.568035 L166.101725,237.568035 L166.101725,243.924898 C166.101725,246.020177 165.213895,246.99679 163.580287,246.99679 C161.94668,246.99679 161.05885,246.020177 161.05885,243.924898 L161.05885,237.568035 L159.212163,237.568035 L159.212163,244.120221 C159.212163,247.121087 160.987823,248.648154 163.580287,248.648154 Z M177.883697,242.4511 L174.989371,237.568035 L172.982875,237.568035 L176.924841,244.120221 L176.924841,248.470588 L178.753771,248.470588 L178.753771,244.120221 L182.713493,237.568035 L180.760267,237.568035 L177.883697,242.4511 Z" id="BUY" fill="#0095FF"></path>
                    <path d="M0,11.3598568 C0,5.08598115 5.08878589,0 11.3722662,0 L263.976682,0 C270.257411,0 275.348948,5.08524364 275.348948,11.3598568 L275.348948,76.1538462 L0,76.1538462 L0,11.3598568 Z" id="Rectangle" fill="#FFFFFF"></path>
                    <g id="Page-1" transform="translate(45.418383, 76.153846)">
                        <path d="M105.950763,114.386382 C104.375812,118.530663 106.419221,123.157466 110.532748,124.810619 L105.442455,138.205128 L0,98.4711935 L5.08859747,85.0817499 C9.31234958,86.6736908 14.0304202,84.5511029 15.6269925,80.3498309 C17.2252607,76.1434931 15.0987585,71.4474572 10.8750064,69.8559384 L15.9648757,56.4618512 L121.407331,96.1953638 L116.315342,109.594517 C112.133136,108.122045 107.52741,110.237457 105.950763,114.386382" id="Fill-1" fill="#0094FF"></path>
                        <polygon id="Stroke-4" stroke="#FFFFFF" stroke-width="0.852316783" points="106.125289 97.5204523 98.3668693 94.585795 26.5379358 67.4171357 15.2820416 97.146527 94.8693947 127.249844"></polygon>
                        <polygon id="Stroke-6" fill="#FFFFFF" fill-rule="nonzero" points="85.2994974 124.022098 96.3365274 93.6843874 95.537995 93.3981642 84.5009649 123.735875"></polygon>
                        <polygon id="Stroke-8" fill="#FFFFFF" fill-rule="nonzero" points="25.8693356 101.268815 36.9063656 70.9311041 36.1078332 70.6448809 25.0708031 100.982592"></polygon>
                        <path d="M185.931506,78.2193547 L182.727983,81.5010998 C181.699639,80.5350121 180.078834,80.5734024 179.092809,81.5854742 C178.102552,82.5983898 178.111016,84.2141609 179.109736,85.2139984 L175.918909,88.4835092 L175.618446,88.7914761 C174.590102,87.8253884 172.969297,87.862935 171.97904,88.8758505 C170.988783,89.8883442 171.001479,91.5036935 171.995968,92.503531 L168.504677,96.0814305 C167.476334,95.1153428 165.855529,95.1533113 164.865272,96.1658049 C163.879247,97.1778767 163.88771,98.7978666 164.882199,99.7977041 L164.547882,100.139843 L161.395141,103.371385 C160.362565,102.405297 158.74176,102.443266 157.755735,103.455337 C156.765478,104.468253 156.778174,106.084024 157.772662,107.083862 L154.539516,110.39556 L73.8632011,32.1757832 L77.113275,28.8434134 C77.1894487,28.9446628 77.274086,29.0416934 77.3671871,29.1302866 C78.3997627,30.1301241 80.045959,30.1048118 81.0446796,29.0796619 C82.0476321,28.0545121 82.0222409,26.4134286 80.9938972,25.4135911 C80.9007961,25.3249979 80.8034632,25.2406234 80.7018984,25.1689051 L83.8715668,21.9204879 L84.2312755,21.553459 C84.3032173,21.6547083 84.3878546,21.7513171 84.4809557,21.8399103 C85.5092994,22.8397478 87.1554957,22.8148573 88.1584482,21.7892856 C89.1571689,20.7645577 89.1360095,19.1234742 88.1076658,18.1236367 C88.0145648,18.0350435 87.9172318,17.950669 87.815667,17.8789507 L91.3450442,14.2630827 C91.4169859,14.3647539 91.5016233,14.4617846 91.5947243,14.5503778 C92.623068,15.5502153 94.2692644,15.5249029 95.267985,14.4997531 C96.2709375,13.4741814 96.2497782,11.8335198 95.2172026,10.8336823 C95.1241015,10.7450891 95.0267686,10.6602927 94.9252038,10.593215 L95.2510575,10.2599358 L98.4545809,6.97776887 C98.5265227,7.07437764 98.61116,7.17183016 98.7042611,7.26042335 C99.7326048,8.26026085 101.378801,8.23452664 102.381754,7.20979867 C103.384706,6.18464883 103.359315,4.54314347 102.330971,3.54330597 C102.23787,3.45471277 102.140537,3.37076017 102.038972,3.3032606 L105.259423,0 L185.931506,78.2193547 Z" id="Fill-10" fill="#0094FF"></path>
                        <polygon id="Stroke-13" stroke="#FFFFFF" stroke-width="0.852316783" points="171.498467 72.535349 165.549729 66.778804 110.477285 13.4834271 88.2962404 36.1739389 149.317846 95.2267042"></polygon>
                        <polygon id="Stroke-15" fill="#FFFFFF" fill-rule="nonzero" points="142.089163 87.9345473 164.163223 65.181264 163.551669 64.5967223 141.477609 87.3500056"></polygon>
                        <polygon id="Stroke-17" fill="#FFFFFF" fill-rule="nonzero" points="96.243038 44.1134091 118.317098 21.3601258 117.705545 20.7755841 95.6314844 43.5288674"></polygon>
                    </g>
                    <path d="M24.5326981,28.1837821 L28.3326108,28.1837821 L28.3326108,37.8433735 L29.7353824,37.8433735 L29.7353824,28.1837821 L33.5352952,28.1837821 L33.5352952,26.94082 L24.5326981,26.94082 L24.5326981,28.1837821 Z M36.5894307,29.9594423 L35.2576855,29.9594423 L35.2576855,37.8433735 L36.5894307,37.8433735 L36.5894307,29.9594423 Z M36.7847533,27.5800577 C36.7847533,27.1006294 36.394108,26.7277408 35.9146798,26.7277408 C35.4530081,26.7277408 35.0623629,27.1006294 35.0623629,27.5800577 C35.0623629,28.0417293 35.4530081,28.4323746 35.9146798,28.4323746 C36.394108,28.4323746 36.7847533,28.0417293 36.7847533,27.5800577 Z M38.400604,33.9014079 C38.400604,36.3518189 39.874402,38.0031829 41.9874376,38.0031829 C43.7630978,38.0031829 44.8817637,36.9733 45.1481127,35.4639889 L43.7808544,35.4639889 C43.6032884,36.3163057 42.9285375,36.8312472 41.9874376,36.8312472 C40.6379359,36.8312472 39.7501058,35.6237983 39.7501058,33.9014079 C39.7501058,32.1790175 40.6379359,30.9715686 41.9874376,30.9715686 C42.9285375,30.9715686 43.6032884,31.4865101 43.7808544,32.3388269 L45.1481127,32.3388269 C44.8817637,30.8295158 43.7630978,29.7996329 41.9874376,29.7996329 C39.874402,29.7996329 38.400604,31.4509969 38.400604,33.9014079 Z M52.0731874,37.8433735 L53.7067948,37.8433735 L50.0311782,33.3687098 L53.5824985,29.9594423 L51.824595,29.9594423 L48.2200048,33.4574929 L48.2200048,26.3015823 L46.8882597,26.3015823 L46.8882597,37.8433735 L48.2200048,37.8433735 L48.2200048,35.0200738 L49.0723217,34.2032701 L52.0731874,37.8433735 Z M60.0991714,35.4817455 L61.3598901,35.4817455 C61.0757845,36.9733 59.9571186,38.0031829 58.1814584,38.0031829 C56.0329096,38.0031829 54.5591116,36.3518189 54.5591116,33.9191645 C54.5591116,31.5575365 55.9973964,29.7996329 58.1459452,29.7996329 C60.3122506,29.7996329 61.4664297,31.3799704 61.4664297,33.6705721 L61.4664297,34.1500003 L55.8908568,34.1500003 C55.9086134,35.8368775 56.8497133,36.8667604 58.1814584,36.8667604 C59.1580715,36.8667604 59.8860922,36.3695755 60.0991714,35.4817455 Z M58.1637018,30.9360554 C56.9740095,30.9360554 56.1216926,31.7528591 55.92637,33.137874 L60.116928,33.137874 C60.0991714,31.9659383 59.4776903,30.9360554 58.1637018,30.9360554 Z M63.6149785,35.8546341 C63.6149785,37.3106754 64.5028086,38.0031829 65.781284,38.0031829 C66.2607122,38.0031829 66.7223839,37.8966433 67.0242461,37.7368339 L67.0242461,36.4938718 C66.7578971,36.6714378 66.3672518,36.8134906 65.9943632,36.8134906 C65.3196123,36.8134906 64.9467237,36.4761152 64.9467237,35.7125813 L64.9467237,31.0958648 L66.8466801,31.0958648 L66.8466801,29.9594423 L64.9467237,29.9594423 L64.9467237,27.8819199 L63.6149785,27.8819199 L63.6149785,29.9594423 L62.3365032,29.9594423 L62.3365032,31.0958648 L63.6149785,31.0958648 L63.6149785,35.8546341 Z M68.2139384,35.6770681 C68.4625308,37.1331094 69.7232496,38.0031829 71.4456399,38.0031829 C73.1325171,38.0031829 74.3754792,37.1153528 74.3754792,35.6237983 C74.3754792,34.522889 73.718485,33.7771117 72.3689832,33.4219797 L70.8419155,33.049091 C70.0961382,32.8360118 69.7410062,32.5874194 69.7410062,32.0547213 C69.7410062,31.2911874 70.4690268,30.9182988 71.2503173,30.9182988 C72.2091738,30.9182988 72.7596285,31.3267006 72.9904643,32.0369647 L74.3222094,32.0369647 C74.0381038,30.6519498 73.0082209,29.7996329 71.2680739,29.7996329 C69.6699798,29.7996329 68.4447742,30.7229762 68.4447742,32.1257477 C68.4447742,33.3509532 69.2260647,33.9191645 70.3447306,34.2032701 L71.9073116,34.611672 C72.7241153,34.8247512 73.0792473,35.1621266 73.0792473,35.7125813 C73.0792473,36.5116284 72.4044964,36.884517 71.4633965,36.884517 C70.5400532,36.884517 69.8475458,36.4938718 69.5989533,35.6770681 L68.2139384,35.6770681 Z" id="Tickets" fill="#000000"></path>
                    <path d="M28.844001,50.332672 C28.844001,51.1565783 28.1337369,51.8810477 27.2245989,52.8754174 L24.4119532,55.9721687 L24.4119532,56.7108434 L30.108271,56.7108434 L30.108271,55.7164737 L25.9461236,55.7164737 L28.1621475,53.2873706 C29.0428749,52.2930009 29.9236024,51.4264787 29.9236024,50.3184667 C29.9236024,48.8269122 28.9292327,47.8609531 27.2672147,47.8609531 C25.6620179,47.8609531 24.5824165,48.9831703 24.4119532,50.6025724 L25.562581,50.6025724 C25.6478126,49.5939974 26.2160239,48.8553228 27.2672147,48.8553228 C28.2331739,48.8553228 28.844001,49.4377393 28.844001,50.332672 Z M34.8812456,55.1198519 C34.8812456,56.2846849 35.5915096,56.8386909 36.6142899,56.8386909 C36.9978325,56.8386909 37.3671698,56.7534592 37.6086596,56.6256117 L37.6086596,55.631242 C37.3955804,55.7732948 37.0830642,55.8869371 36.7847533,55.8869371 C36.2449526,55.8869371 35.9466417,55.6170367 35.9466417,55.0062096 L35.9466417,51.3128364 L37.4666068,51.3128364 L37.4666068,50.4036984 L35.9466417,50.4036984 L35.9466417,48.7416805 L34.8812456,48.7416805 L34.8812456,50.4036984 L33.8584653,50.4036984 L33.8584653,51.3128364 L34.8812456,51.3128364 L34.8812456,55.1198519 Z M40.151405,50.4036984 L39.0860089,50.4036984 L39.0860089,56.7108434 L40.151405,56.7108434 L40.151405,50.4036984 Z M40.3076631,48.5001907 C40.3076631,48.1166481 39.9951469,47.8183372 39.6116043,47.8183372 C39.242267,47.8183372 38.9297508,48.1166481 38.9297508,48.5001907 C38.9297508,48.869528 39.242267,49.1820442 39.6116043,49.1820442 C39.9951469,49.1820442 40.3076631,48.869528 40.3076631,48.5001907 Z M41.6003437,53.5572709 C41.6003437,55.5175997 42.779382,56.8386909 44.4698105,56.8386909 C45.8903387,56.8386909 46.7852714,56.0147846 46.9983506,54.8073357 L45.9045439,54.8073357 C45.7624911,55.4891892 45.2226904,55.9011423 44.4698105,55.9011423 C43.3902091,55.9011423 42.6799451,54.9351832 42.6799451,53.5572709 C42.6799451,52.1793586 43.3902091,51.2133995 44.4698105,51.2133995 C45.2226904,51.2133995 45.7624911,51.6253526 45.9045439,52.3072061 L46.9983506,52.3072061 C46.7852714,51.0997572 45.8903387,50.2758509 44.4698105,50.2758509 C42.779382,50.2758509 41.6003437,51.5969421 41.6003437,53.5572709 Z M52.5384104,56.7108434 L53.8452963,56.7108434 L50.904803,53.1311125 L53.7458593,50.4036984 L52.3395364,50.4036984 L49.4558643,53.2021389 L49.4558643,47.4774105 L48.3904682,47.4774105 L48.3904682,56.7108434 L49.4558643,56.7108434 L49.4558643,54.4522036 L50.1377178,53.7987607 L52.5384104,56.7108434 Z M58.9591976,54.8215409 L59.9677725,54.8215409 C59.740488,56.0147846 58.8455553,56.8386909 57.4250272,56.8386909 C55.7061881,56.8386909 54.5271498,55.5175997 54.5271498,53.5714762 C54.5271498,51.6821738 55.6777776,50.2758509 57.3966166,50.2758509 C59.1296609,50.2758509 60.0530042,51.5401209 60.0530042,53.3726022 L60.0530042,53.7561448 L55.5925459,53.7561448 C55.6067511,55.1056466 56.3596311,55.9295529 57.4250272,55.9295529 C58.2063176,55.9295529 58.7887342,55.531805 58.9591976,54.8215409 Z M57.4108219,51.1849889 C56.459068,51.1849889 55.7772145,51.8384318 55.6209564,52.9464438 L58.9734028,52.9464438 C58.9591976,52.0088952 58.4620127,51.1849889 57.4108219,51.1849889 Z M61.7718433,55.1198519 C61.7718433,56.2846849 62.4821074,56.8386909 63.5048876,56.8386909 C63.8884302,56.8386909 64.2577675,56.7534592 64.4992573,56.6256117 L64.4992573,55.631242 C64.2861781,55.7732948 63.9736619,55.8869371 63.675351,55.8869371 C63.1355503,55.8869371 62.8372394,55.6170367 62.8372394,55.0062096 L62.8372394,51.3128364 L64.3572045,51.3128364 L64.3572045,50.4036984 L62.8372394,50.4036984 L62.8372394,48.7416805 L61.7718433,48.7416805 L61.7718433,50.4036984 L60.749063,50.4036984 L60.749063,51.3128364 L61.7718433,51.3128364 L61.7718433,55.1198519 Z M65.4510112,54.977799 C65.6498851,56.1426321 66.6584601,56.8386909 68.0363724,56.8386909 C69.3858741,56.8386909 70.3802438,56.1284268 70.3802438,54.9351832 C70.3802438,54.0544557 69.8546484,53.4578339 68.775047,53.1737283 L67.5533928,52.8754174 C66.956771,52.704954 66.6726654,52.5060801 66.6726654,52.0799216 C66.6726654,51.4690945 67.2550819,51.1707836 67.8801143,51.1707836 C68.6471995,51.1707836 69.0875632,51.4975051 69.2722319,52.0657164 L70.337628,52.0657164 C70.1103435,50.9577044 69.2864372,50.2758509 67.8943196,50.2758509 C66.6158442,50.2758509 65.6356798,51.0145255 65.6356798,52.1367428 C65.6356798,53.1169072 66.2607122,53.5714762 67.1556449,53.7987607 L68.4057097,54.1254822 C69.0591527,54.2959455 69.3432583,54.5658459 69.3432583,55.0062096 C69.3432583,55.6454473 68.8034576,55.9437582 68.0505777,55.9437582 C67.311903,55.9437582 66.7578971,55.631242 66.5590231,54.977799 L65.4510112,54.977799 Z" id="2-tickets" fill="#000000"></path>
                </g>
                <g id="Group-18" transform="translate(219.995294, 0.000000)">
                    <g id="Rectangle">
                        <use fill="black" fill-opacity="1" filter="url(#filter-2)" xlink:href="#path-1"></use>
                        <use fill="#FFFFFF" fill-rule="evenodd" xlink:href="#path-1"></use>
                    </g>
                    <polygon id="Rectangle-30" fill="#0094FF" opacity="0.100000001" points="173.157586 74.7435897 325.025305 74.7435897 325.025305 191.794872 173.157586 191.794872"></polygon>
                    <path d="M68.4019726,35.2069171 C68.4019726,38.9869171 70.8219726,41.5469171 73.9819726,41.5469171 C76.7419726,41.5469171 78.5219726,39.9469171 78.9819726,37.4669171 L76.9419726,37.4669171 C76.4619726,38.7869171 75.6219726,39.6669171 73.9819726,39.6669171 C71.8019726,39.6669171 70.5019726,37.7669171 70.5019726,35.2069171 C70.5019726,32.6269171 71.8219726,30.7469171 73.9819726,30.7469171 C75.6219726,30.7469171 76.4619726,31.6269171 76.9419726,32.9269171 L78.9819726,32.9269171 C78.5219726,30.4669171 76.7619726,28.8669171 73.9819726,28.8669171 C70.8219726,28.8669171 68.4019726,31.4269171 68.4019726,35.2069171 Z M80.8819726,41.3469171 L82.8819726,41.3469171 L82.8819726,35.5069171 C83.1019726,34.6269171 83.8819726,34.0869171 84.7419726,34.0869171 C85.8819726,34.0869171 86.4219726,34.8069171 86.4219726,35.9069171 L86.4219726,41.3469171 L88.4219726,41.3469171 L88.4219726,35.5669171 C88.4219726,33.6069171 87.3019726,32.2669171 85.2819726,32.2669171 C84.2419726,32.2669171 83.3619726,32.7469171 82.8819726,33.3069171 L82.8819726,28.3469171 L80.8819726,28.3469171 L80.8819726,41.3469171 Z M98.6019726,36.9069171 C98.6019726,39.6269171 96.8819726,41.5469171 94.3819726,41.5469171 C91.8819726,41.5469171 90.1619726,39.6269171 90.1619726,36.9069171 C90.1619726,34.1869171 91.8819726,32.2669171 94.3819726,32.2669171 C96.8819726,32.2669171 98.6019726,34.1869171 98.6019726,36.9069171 Z M96.6019726,36.9069171 C96.6019726,35.2269171 95.8219726,33.9869171 94.3819726,33.9869171 C92.9419726,33.9869171 92.1619726,35.2269171 92.1619726,36.9069171 C92.1619726,38.5869171 92.9419726,39.8269171 94.3819726,39.8269171 C95.8219726,39.8269171 96.6019726,38.5869171 96.6019726,36.9069171 Z M108.281973,36.9069171 C108.281973,39.6269171 106.561973,41.5469171 104.061973,41.5469171 C101.561973,41.5469171 99.8419726,39.6269171 99.8419726,36.9069171 C99.8419726,34.1869171 101.561973,32.2669171 104.061973,32.2669171 C106.561973,32.2669171 108.281973,34.1869171 108.281973,36.9069171 Z M106.281973,36.9069171 C106.281973,35.2269171 105.501973,33.9869171 104.061973,33.9869171 C102.621973,33.9869171 101.841973,35.2269171 101.841973,36.9069171 C101.841973,38.5869171 102.621973,39.8269171 104.061973,39.8269171 C105.501973,39.8269171 106.281973,38.5869171 106.281973,36.9069171 Z M109.521973,38.7869171 C109.781973,40.5069171 111.221973,41.5469171 113.301973,41.5469171 C115.301973,41.5469171 116.761973,40.4669171 116.761973,38.7069171 C116.761973,37.4069171 116.001973,36.5469171 114.481973,36.1869171 L112.601973,35.7469171 C111.961973,35.5869171 111.681973,35.3269171 111.681973,34.9269171 C111.681973,34.2269171 112.401973,33.9069171 113.101973,33.9069171 C114.021973,33.9069171 114.541973,34.3069171 114.721973,34.8869171 L116.681973,34.8869171 C116.381973,33.2669171 115.201973,32.2669171 113.121973,32.2669171 C111.181973,32.2669171 109.761973,33.4469171 109.761973,35.0469171 C109.761973,36.5069171 110.701973,37.1869171 111.961973,37.4869171 L113.801973,37.9269171 C114.541973,38.1069171 114.841973,38.3669171 114.841973,38.8469171 C114.841973,39.5469171 114.241973,39.9069171 113.321973,39.9069171 C112.441973,39.9069171 111.781973,39.5269171 111.561973,38.7869171 L109.521973,38.7869171 Z M124.201973,38.5869171 L126.041973,38.5869171 C125.741973,40.3469171 124.441973,41.5469171 122.301973,41.5469171 C119.821973,41.5469171 118.101973,39.6669171 118.101973,36.9269171 C118.101973,34.2669171 119.841973,32.2669171 122.261973,32.2669171 C124.761973,32.2669171 126.121973,34.0469171 126.121973,36.6469171 L126.121973,37.3669171 L120.061973,37.3669171 C120.121973,38.9269171 121.021973,39.8669171 122.301973,39.8669171 C123.261973,39.8669171 123.981973,39.4469171 124.201973,38.5869171 Z M122.281973,33.9469171 C121.181973,33.9469171 120.361973,34.6269171 120.121973,35.9069171 L124.141973,35.9069171 C124.121973,34.8269171 123.501973,33.9469171 122.281973,33.9469171 Z M134.381973,40.5869171 L134.381973,44.7469171 L132.381973,44.7469171 L132.381973,32.4669171 L134.381973,32.4669171 L134.381973,33.2269171 C134.781973,32.7269171 135.661973,32.2669171 136.641973,32.2669171 C139.241973,32.2669171 140.761973,34.4269171 140.761973,36.9069171 C140.761973,39.3869171 139.241973,41.5469171 136.641973,41.5469171 C135.661973,41.5469171 134.781973,41.0869171 134.381973,40.5869171 Z M134.381973,35.2269171 L134.381973,38.5869171 C134.721973,39.2869171 135.481973,39.7669171 136.301973,39.7669171 C137.841973,39.7669171 138.761973,38.5469171 138.761973,36.9069171 C138.761973,35.2669171 137.841973,34.0469171 136.301973,34.0469171 C135.481973,34.0469171 134.721973,34.5269171 134.381973,35.2269171 Z M149.461973,41.3469171 L147.561973,41.3469171 L147.561973,40.8469171 C147.261973,41.1469171 146.361973,41.5069171 145.361973,41.5069171 C143.541973,41.5069171 142.041973,40.4269171 142.041973,38.6069171 C142.041973,36.9269171 143.541973,35.7469171 145.501973,35.7469171 C146.301973,35.7469171 147.201973,36.0269171 147.561973,36.2869171 L147.561973,35.5669171 C147.561973,34.6669171 147.001973,33.9669171 145.861973,33.9669171 C145.061973,33.9669171 144.561973,34.3069171 144.341973,34.9269171 L142.421973,34.9269171 C142.681973,33.4069171 144.081973,32.2669171 145.901973,32.2669171 C148.141973,32.2669171 149.461973,33.5069171 149.461973,35.5269171 L149.461973,41.3469171 Z M147.561973,38.9869171 L147.561973,38.2469171 C147.341973,37.6869171 146.541973,37.3469171 145.741973,37.3469171 C144.841973,37.3469171 143.901973,37.7269171 143.901973,38.6069171 C143.901973,39.5069171 144.841973,39.8869171 145.741973,39.8869171 C146.541973,39.8869171 147.341973,39.5469171 147.561973,38.9869171 Z M155.061973,44.7469171 L159.741973,32.4669171 L157.681973,32.4669171 L155.401973,39.0069171 L153.081973,32.4669171 L150.941973,32.4669171 L154.381973,41.5869171 L153.121973,44.7469171 L155.061973,44.7469171 Z M167.901973,33.4469171 C167.441973,32.7669171 166.561973,32.2669171 165.561973,32.2669171 C164.561973,32.2669171 163.761973,32.6469171 163.341973,33.2069171 L163.341973,32.4669171 L161.341973,32.4669171 L161.341973,41.3469171 L163.341973,41.3469171 L163.341973,35.3869171 C163.521973,34.5069171 164.201973,34.0669171 164.921973,34.0669171 C165.901973,34.0669171 166.381973,34.7869171 166.381973,35.8869171 L166.381973,41.3469171 L168.381973,41.3469171 L168.381973,35.3869171 C168.561973,34.5069171 169.241973,34.0669171 169.961973,34.0669171 C170.941973,34.0669171 171.421973,34.7869171 171.421973,35.8869171 L171.421973,41.3469171 L173.421973,41.3469171 L173.421973,35.5669171 C173.421973,33.5469171 172.361973,32.2669171 170.541973,32.2669171 C169.341973,32.2669171 168.521973,32.7269171 167.901973,33.4469171 Z M181.261973,38.5869171 L183.101973,38.5869171 C182.801973,40.3469171 181.501973,41.5469171 179.361973,41.5469171 C176.881973,41.5469171 175.161973,39.6669171 175.161973,36.9269171 C175.161973,34.2669171 176.901973,32.2669171 179.321973,32.2669171 C181.821973,32.2669171 183.181973,34.0469171 183.181973,36.6469171 L183.181973,37.3669171 L177.121973,37.3669171 C177.181973,38.9269171 178.081973,39.8669171 179.361973,39.8669171 C180.321973,39.8669171 181.041973,39.4469171 181.261973,38.5869171 Z M179.341973,33.9469171 C178.241973,33.9469171 177.421973,34.6269171 177.181973,35.9069171 L181.201973,35.9069171 C181.181973,34.8269171 180.561973,33.9469171 179.341973,33.9469171 Z M185.021973,41.3469171 L187.021973,41.3469171 L187.021973,35.5069171 C187.241973,34.6269171 188.021973,34.0869171 188.881973,34.0869171 C190.021973,34.0869171 190.561973,34.8069171 190.561973,35.9069171 L190.561973,41.3469171 L192.561973,41.3469171 L192.561973,35.5669171 C192.561973,33.6069171 191.441973,32.2669171 189.421973,32.2669171 C188.381973,32.2669171 187.501973,32.7469171 187.021973,33.3069171 L187.021973,32.4669171 L185.021973,32.4669171 L185.021973,41.3469171 Z M195.381973,38.9469171 C195.381973,40.7069171 196.501973,41.5469171 198.081973,41.5469171 C198.701973,41.5469171 199.241973,41.4269171 199.581973,41.2269171 L199.581973,39.4069171 C199.301973,39.6069171 198.841973,39.7669171 198.441973,39.7669171 C197.781973,39.7669171 197.381973,39.4469171 197.381973,38.7269171 L197.381973,34.1269171 L199.381973,34.1269171 L199.381973,32.4669171 L197.381973,32.4669171 L197.381973,30.0869171 L195.381973,30.0869171 L195.381973,32.4669171 L193.981973,32.4669171 L193.981973,34.1269171 L195.381973,34.1269171 L195.381973,38.9469171 Z M212.601973,33.4469171 C212.141973,32.7669171 211.261973,32.2669171 210.261973,32.2669171 C209.261973,32.2669171 208.461973,32.6469171 208.041973,33.2069171 L208.041973,32.4669171 L206.041973,32.4669171 L206.041973,41.3469171 L208.041973,41.3469171 L208.041973,35.3869171 C208.221973,34.5069171 208.901973,34.0669171 209.621973,34.0669171 C210.601973,34.0669171 211.081973,34.7869171 211.081973,35.8869171 L211.081973,41.3469171 L213.081973,41.3469171 L213.081973,35.3869171 C213.261973,34.5069171 213.941973,34.0669171 214.661973,34.0669171 C215.641973,34.0669171 216.121973,34.7869171 216.121973,35.8869171 L216.121973,41.3469171 L218.121973,41.3469171 L218.121973,35.5669171 C218.121973,33.5469171 217.061973,32.2669171 215.241973,32.2669171 C214.041973,32.2669171 213.221973,32.7269171 212.601973,33.4469171 Z M225.961973,38.5869171 L227.801973,38.5869171 C227.501973,40.3469171 226.201973,41.5469171 224.061973,41.5469171 C221.581973,41.5469171 219.861973,39.6669171 219.861973,36.9269171 C219.861973,34.2669171 221.601973,32.2669171 224.021973,32.2669171 C226.521973,32.2669171 227.881973,34.0469171 227.881973,36.6469171 L227.881973,37.3669171 L221.821973,37.3669171 C221.881973,38.9269171 222.781973,39.8669171 224.061973,39.8669171 C225.021973,39.8669171 225.741973,39.4469171 225.961973,38.5869171 Z M224.041973,33.9469171 C222.941973,33.9469171 222.121973,34.6269171 221.881973,35.9069171 L225.901973,35.9069171 C225.881973,34.8269171 225.261973,33.9469171 224.041973,33.9469171 Z M230.181973,38.9469171 C230.181973,40.7069171 231.301973,41.5469171 232.881973,41.5469171 C233.501973,41.5469171 234.041973,41.4269171 234.381973,41.2269171 L234.381973,39.4069171 C234.101973,39.6069171 233.641973,39.7669171 233.241973,39.7669171 C232.581973,39.7669171 232.181973,39.4469171 232.181973,38.7269171 L232.181973,34.1269171 L234.181973,34.1269171 L234.181973,32.4669171 L232.181973,32.4669171 L232.181973,30.0869171 L230.181973,30.0869171 L230.181973,32.4669171 L228.781973,32.4669171 L228.781973,34.1269171 L230.181973,34.1269171 L230.181973,38.9469171 Z M236.421973,41.3469171 L238.421973,41.3469171 L238.421973,35.5069171 C238.641973,34.6269171 239.421973,34.0869171 240.281973,34.0869171 C241.421973,34.0869171 241.961973,34.8069171 241.961973,35.9069171 L241.961973,41.3469171 L243.961973,41.3469171 L243.961973,35.5669171 C243.961973,33.6069171 242.841973,32.2669171 240.821973,32.2669171 C239.781973,32.2669171 238.901973,32.7469171 238.421973,33.3069171 L238.421973,28.3469171 L236.421973,28.3469171 L236.421973,41.3469171 Z M254.141973,36.9069171 C254.141973,39.6269171 252.421973,41.5469171 249.921973,41.5469171 C247.421973,41.5469171 245.701973,39.6269171 245.701973,36.9069171 C245.701973,34.1869171 247.421973,32.2669171 249.921973,32.2669171 C252.421973,32.2669171 254.141973,34.1869171 254.141973,36.9069171 Z M252.141973,36.9069171 C252.141973,35.2269171 251.361973,33.9869171 249.921973,33.9869171 C248.481973,33.9869171 247.701973,35.2269171 247.701973,36.9069171 C247.701973,38.5869171 248.481973,39.8269171 249.921973,39.8269171 C251.361973,39.8269171 252.141973,38.5869171 252.141973,36.9069171 Z M261.761973,41.3469171 L261.761973,40.5869171 C261.361973,41.0869171 260.481973,41.5469171 259.501973,41.5469171 C256.901973,41.5469171 255.381973,39.4669171 255.381973,36.9069171 C255.381973,34.3669171 256.901973,32.2669171 259.501973,32.2669171 C260.481973,32.2669171 261.361973,32.7269171 261.761973,33.2269171 L261.761973,28.3469171 L263.761973,28.3469171 L263.761973,41.3469171 L261.761973,41.3469171 Z M261.761973,38.5869171 L261.761973,35.2269171 C261.421973,34.5269171 260.661973,34.0469171 259.841973,34.0469171 C258.301973,34.0469171 257.381973,35.2669171 257.381973,36.9069171 C257.381973,38.5469171 258.301973,39.7669171 259.841973,39.7669171 C260.661973,39.7669171 261.421973,39.2869171 261.761973,38.5869171 Z" id="Choose-payment-metho" fill="#000000" opacity="0.600000024"></path>
                    <rect id="Rectangle-20" fill="#000000" opacity="0.100000001" x="0" y="198.846154" width="332.121927" height="1"></rect>
                    <rect id="Rectangle-20" fill="#000000" opacity="0.100000001" x="0" y="66.2820513" width="332.121927" height="1"></rect>
                    <g id="Group-36" transform="translate(59.611628, 111.410256)">
                        <rect id="Rectangle-15" fill="#FD6EB6" x="0" y="0" width="45.4183832" height="45.1282051" rx="6.81853494"></rect>
                        <g id="Group-16" transform="translate(11.354596, 12.692308)">
                            <path d="M11.9815175,1.41025641 C14.3067544,1.41025641 16.2446647,2.02964763 17.5857717,3.20148721 C19.1018627,4.52615477 19.8705426,6.53311676 19.8705426,9.16666667 C19.8705426,14.3859017 17.2900114,16.9230769 11.9815175,16.9230769 L1.41932447,16.9230769 L1.41932447,1.41025641 L11.9815175,1.41025641 Z" id="Path" fill="#FFFFFF"></path>
                            <polygon id="Fill-1" fill="#000000" points="2.83864895 15.5128205 5.6772979 15.5128205 5.6772979 9.87179487 2.83864895 9.87179487"></polygon>
                            <path d="M5.6772979,6.76923077 C5.6772979,7.82985656 5.04179532,8.46153846 3.97410853,8.46153846 C3.47417742,8.46153846 2.83864895,7.82985656 2.83864895,6.76923077 C2.83864895,6.27242462 3.47417742,5.64102564 3.97410853,5.64102564 C5.04179532,5.64102564 5.6772979,6.27242462 5.6772979,6.76923077" id="Fill-2" fill="#000000"></path>
                            <path d="M12.322317,1.41025641 C14.3067544,1.41025641 16.2446647,2.02964763 17.3544674,3.04318489 C19.1018627,4.52615477 19.8705426,6.53311676 19.8705426,9.57489879 C19.8705426,14.3859017 17.2900114,16.9230769 12.322317,16.9230769 L1.41932447,16.9230769 L1.41932447,1.41025641 L12.322317,1.41025641 Z M0,0 L0,18.3333333 L11.9223256,18.3333333 C14.9138197,18.2938818 17.0319007,17.6378874 18.7350831,16.6666667 C20.3630261,14.8388478 21.2898671,12.4136235 21.2898671,9.16666667 C21.2898671,7.61452451 21.0460747,6.22234536 20.4382724,5 C20.1053198,3.88691326 19.4255824,2.91607208 18.7350831,2.5 C16.9941395,0.781898353 14.817127,0.0458528156 11.9223256,0 L0,0 Z" id="Fill-4" fill="#000000"></path>
                            <path d="M11.1518352,15.5128205 L7.09662237,15.5128205 L7.09662237,2.82051282 L11.1518352,2.82051282 L11.1518352,2.82051282 C14.6920568,2.82051282 18.4512182,4.17096867 18.4512182,9.16666667 C18.4512182,14.4823018 14.6920568,15.5128205 11.1518352,15.5128205 L11.1518352,15.5128205 Z" id="Fill-7" fill="#EE499C"></path>
                        </g>
                    </g>
                    <g id="Group-13" transform="translate(59.611628, 242.564103)">
                        <rect id="Rectangle-15" fill="#007AFF" x="0" y="0" width="45.4183832" height="45.1282051" rx="6.81853494"></rect>
                        <g id="Group" transform="translate(14.193245, 11.282051)" fill="#FFFFFF">
                            <path d="M15.3486571,5.37453949 C15.5938905,3.72882378 15.3470195,2.6092717 14.5013944,1.59486615 C13.5704084,0.478330568 11.8885745,0 9.73674409,0 L3.49045868,0 C3.05075818,0 2.67615301,0.336770575 2.60778245,0.794201114 L0.00663055682,18.1545842 C-0.0445450135,18.4971723 0.20703409,18.8067944 0.536195359,18.8067944 L4.39237693,18.8067944 L4.12626397,20.5832969 C4.08143417,20.8830076 4.30128442,21.1538462 4.58950523,21.1538462 L7.83997276,21.1538462 C8.22460834,21.1538462 8.55213199,20.8593066 8.61210976,20.4591895 L8.64404332,20.2850944 L9.25630784,16.1981691 L9.29581538,15.9723626 C9.35579315,15.572461 9.6833168,15.2774905 10.0679524,15.2774905 L10.5541203,15.2774905 C13.7030555,15.2774905 16.1686945,13.9310546 16.8890418,10.0367543 C17.1901589,8.40956849 17.0343804,7.05128205 16.2382933,6.09634463 C15.9977681,5.8080535 15.6980839,5.56931915 15.3486571,5.37453949 L15.3486571,5.37453949" id="Shape" opacity="0.68"></path>
                            <path d="M15.521485,5.23923545 C15.7694796,3.63495064 15.5198289,2.54358328 14.6646819,1.5547154 C13.7232129,0.466288595 12.0224413,0 9.84638106,0 L3.52976169,0 C3.08511011,0 2.70628683,0.328292376 2.63714641,0.774207099 L0.00670521773,17.6975425 C-0.045046596,18.031506 0.20936532,18.3333333 0.542232986,18.3333333 L4.44183565,18.3333333 L5.42139398,12.0306658 L5.39096392,12.2283134 C5.46031135,11.7826087 5.8356155,11.4541063 6.28047409,11.4541063 L8.13401705,11.4541063 C11.7740326,11.4541063 14.6243155,9.95358118 15.4568987,5.61415669 C15.4817396,5.48603235 15.5026473,5.36147868 15.521485,5.23923545" id="Shape" opacity="0.7"></path>
                            <path d="M6.4736472,5.26044949 C6.51525455,4.99243856 6.684996,4.77273682 6.91331895,4.66183575 C7.01702683,4.61142617 7.13315482,4.58328082 7.25466486,4.58328082 L12.2059401,4.58328082 C12.7925831,4.58328082 13.3394818,4.62234825 13.839391,4.70405377 C13.9822222,4.7273682 14.1213274,4.75425331 14.2564996,4.78470909 C14.3914647,4.81516488 14.5227039,4.84898131 14.6495959,4.88678849 C14.7131455,4.90548204 14.775453,4.92543583 14.8369325,4.94601974 C15.0824366,5.02877547 15.3111736,5.12623398 15.5214874,5.23944549 C15.7694755,3.63516068 15.5198314,2.54379332 14.6647071,1.55492544 C13.722849,0.466288595 12.0221225,0 9.84611996,0 L3.52966809,0 C3.0850283,0 2.70621507,0.328292376 2.63707648,0.774207099 L0.00670503993,17.6975425 C-0.0450454015,18.031506 0.209359768,18.3333333 0.542218608,18.3333333 L4.44171787,18.3333333 L5.42125022,12.0306658 L6.4736472,5.26044949 L6.4736472,5.26044949 Z" id="Shape"></path>
                        </g>
                    </g>
                    <g id="Group-2" transform="translate(227.091916, 111.410256)">
                        <rect id="Rectangle-15" fill="#000000" x="0" y="0" width="45.4183832" height="45.1282051" rx="6.81853494"></rect>
                        <g id="Group-7" transform="translate(8.515947, 14.102564)">
                            <ellipse id="Oval-2" fill="#E7001A" cx="8.51594685" cy="8.46153846" rx="8.51594685" ry="8.46153846"></ellipse>
                            <ellipse id="Oval-2" fill="#F49B1C" cx="19.8705426" cy="8.46153846" rx="8.51594685" ry="8.46153846"></ellipse>
                            <path d="M13.4835825,1.6496355 C15.6434674,3.07958084 17.0318937,5.31511082 17.0318937,7.85714286 C17.0318937,10.2823695 15.6434674,12.4688154 13.4835825,13.8781347 C11.3236977,12.4688154 9.93527132,10.2823695 9.93527132,7.85714286 C9.93527132,5.31511082 11.3236977,3.07958084 13.4835825,1.6496355 Z" id="Combined-Shape" fill="#FF5F00"></path>
                        </g>
                    </g>
                    <g id="Group-14" transform="translate(227.091916, 242.564103)">
                        <rect id="Rectangle-15" fill="#FF821E" x="0" y="0" width="45.4183832" height="45.1282051" rx="6.81853494"></rect>
                        <g id="Group-15" transform="translate(14.193245, 12.692308)" fill="#FFFFFF">
                            <path d="M16.1438082,8.50423976 C16.4806002,6.28147548 14.7665035,5.08657002 12.4227064,4.28944436 L13.1829997,1.27842877 L11.3266786,0.821660633 L10.5864764,3.75332907 C10.0984718,3.6332643 9.59724917,3.5199858 9.09919889,3.40775134 L9.84468817,0.456768141 L7.98942443,-3.55271368e-15 L7.2286024,3.00997155 C6.82466353,2.91913994 6.42812668,2.82935237 6.04322158,2.73486662 L6.04533644,2.72547025 L3.48529454,2.09434718 L2.99147399,4.05192493 C2.99147399,4.05192493 4.36877864,4.36357131 4.33969927,4.38288607 C5.09153314,4.56820343 5.2274131,5.05942494 5.20467832,5.44885241 L4.33864184,8.87905064 C4.39045599,8.89210116 4.4576029,8.91089391 4.53162311,8.94012707 C4.46976336,8.92498847 4.40367389,8.9082838 4.33546955,8.89210116 L3.12153807,13.697302 C3.02954153,13.922815 2.79637786,14.2610844 2.27083435,14.1326673 C2.28933941,14.1592904 0.921551637,13.8001401 0.921551637,13.8001401 L-1.77635684e-15,15.8981414 L2.41570248,16.492723 C2.86511091,16.6039134 3.30553117,16.7203241 3.73907813,16.8299484 L2.97085407,19.8754174 L4.82506038,20.3321855 L5.58588241,17.3190819 C6.09239215,17.4548072 6.58409784,17.5800922 7.06522922,17.6980689 L6.30705076,20.697078 L8.16337193,21.1538462 L8.93159598,18.1141194 C12.0970175,18.7055689 14.477296,18.4670054 15.4792124,15.6402632 C16.2865615,13.3642528 15.43903,12.0513706 13.7735753,11.1952566 C14.9864493,10.9191077 15.9000702,10.1313784 16.1438082,8.50423976 L16.1438082,8.50423976 Z M11.9024501,14.376451 C11.3287934,16.6524614 7.44749074,15.4220585 6.18914714,15.1135443 L7.2085112,11.078846 C8.4668548,11.3889263 12.5020138,12.0028227 11.9024501,14.376451 Z M12.4766354,8.47135245 C11.9532068,10.5416867 8.72275324,9.4898149 7.67483853,9.23193666 L8.59903375,5.57257132 C9.64694846,5.83044956 13.0217414,6.31175268 12.4766354,8.47135245 Z" id="Shape"></path>
                        </g>
                    </g>
                    <rect id="Rectangle-27" fill="#000000" opacity="0.100000001" x="164.641639" y="67.6923077" width="1" height="262.307692"></rect>
                </g>
            </g>
        </g>
    </g>
</svg>