<?xml version="1.0" encoding="UTF-8"?>
<svg width="740px" height="330px" viewBox="0 0 740 330" version="1.1" xmlns="http://www.w3.org/2000/svg" xmlns:xlink="http://www.w3.org/1999/xlink">
    <!-- Generator: Sketch 43.1 (39012) - http://www.bohemiancoding.com/sketch -->
    <title>product-cover-recurring</title>
    <desc>Created with Sketch.</desc>
    <defs>
        <rect id="path-1" x="0" y="0" width="740" height="95.2719665" rx="7.88075666"></rect>
        <filter x="-9.9%" y="-55.6%" width="119.7%" height="253.2%" filterUnits="objectBoundingBox" id="filter-3">
            <feOffset dx="0" dy="20" in="SourceAlpha" result="shadowOffsetOuter1"></feOffset>
            <feGaussianBlur stdDeviation="21" in="shadowOffsetOuter1" result="shadowBlurOuter1"></feGaussianBlur>
            <feColorMatrix values="0 0 0 0 0   0 0 0 0 0   0 0 0 0 0  0 0 0 0.4 0" type="matrix" in="shadowBlurOuter1"></feColorMatrix>
        </filter>
    </defs>
    <g id="Assets" stroke="none" stroke-width="1" fill="none" fill-rule="evenodd">
        <g id="product-cover-recurring">
            <g id="Group-3">
                <g id="Group-9" opacity="0.400000006" transform="translate(37.206704, 0.000000)">
                    <g id="Group-68" transform="translate(0.000000, 240.251046)">
                        <rect id="Mask" fill="#FFFFFF" x="0" y="0" width="665.586592" height="89.748954" rx="8.26652733"></rect>
                        <g id="Group-2" opacity="0.5" transform="translate(56.499069, 30.376569)" fill="#000000">
                            <g id="Group-69">
                                <path d="M0.330661093,10.054111 C0.529057749,12.4569149 2.00601063,14.2204407 4.91582825,14.2204407 C7.69338144,14.2204407 9.45690727,12.5450912 9.45690727,9.32665655 L9.45690727,0.46493925 L7.16432369,0.46493925 L7.16432369,9.32665655 C7.16432369,11.2444909 6.41482521,12.1262538 4.87174011,12.1262538 C3.57113981,12.1262538 2.86572947,11.3547113 2.71142096,10.054111 L0.330661093,10.054111 Z M11.3967857,12.6332675 C11.3967857,13.4929863 12.0581079,14.1543085 12.8957826,14.1543085 C13.7334574,14.1543085 14.3947796,13.4929863 14.3947796,12.6332675 C14.3947796,11.7735486 13.7334574,11.1122265 12.8957826,11.1122265 C12.0581079,11.1122265 11.3967857,11.7735486 11.3967857,12.6332675 Z M20.3025911,10.054111 C20.5009878,12.4569149 21.9779407,14.2204407 24.8877583,14.2204407 C27.6653115,14.2204407 29.4288373,12.5450912 29.4288373,9.32665655 L29.4288373,0.46493925 L27.1362537,0.46493925 L27.1362537,9.32665655 C27.1362537,11.2444909 26.3867552,12.1262538 24.8436701,12.1262538 C23.5430698,12.1262538 22.8376595,11.3547113 22.683351,10.054111 L20.3025911,10.054111 Z M39.5691108,14 L37.4749239,14 L37.4749239,13.4488982 C37.1442628,13.7795593 36.1522795,14.1763526 35.0500759,14.1763526 C33.0440653,14.1763526 31.3907598,12.9859726 31.3907598,10.979962 C31.3907598,9.12825989 33.0440653,7.82765959 35.2043844,7.82765959 C36.0861473,7.82765959 37.0781306,8.13627661 37.4749239,8.42284956 L37.4749239,7.62926294 C37.4749239,6.63727966 36.8576899,5.86573711 35.6011777,5.86573711 C34.7194148,5.86573711 34.168313,6.24048635 33.9258282,6.9238526 L31.8095972,6.9238526 C32.0961701,5.24850307 33.6392552,3.99199091 35.6452659,3.99199091 C38.114202,3.99199091 39.5691108,5.35872343 39.5691108,7.58517479 L39.5691108,14 Z M37.4749239,11.3987994 L37.4749239,10.5831687 C37.2324391,9.96593466 36.3506762,9.59118542 35.4689133,9.59118542 C34.47693,9.59118542 33.4408586,10.0100228 33.4408586,10.979962 C33.4408586,11.9719453 34.47693,12.3907827 35.4689133,12.3907827 C36.3506762,12.3907827 37.2324391,12.0160334 37.4749239,11.3987994 Z M42.1703114,14 L44.3747187,14 L44.3747187,7.56313072 C44.6172035,6.59319151 45.4769224,5.99800154 46.4248175,5.99800154 C47.6813296,5.99800154 48.2765196,6.79158817 48.2765196,8.00401218 L48.2765196,14 L50.4809269,14 L50.4809269,7.62926294 C50.4809269,5.46894379 49.2464588,3.99199091 47.0200075,3.99199091 C45.8737157,3.99199091 44.9037765,4.52104866 44.3747187,5.1382827 L44.3747187,4.21243164 L42.1703114,4.21243164 L42.1703114,14 Z M52.3987612,11.1783587 C52.6853342,13.0741489 54.2725074,14.2204407 56.565091,14.2204407 C58.7694983,14.2204407 60.3787156,13.0300608 60.3787156,11.0901824 C60.3787156,9.65731764 59.5410409,8.70942251 57.8656913,8.3126292 L55.7935485,7.82765959 C55.0881381,7.65130701 54.7795211,7.36473406 54.7795211,6.9238526 C54.7795211,6.15231005 55.5731077,5.79960489 56.3446503,5.79960489 C57.3586776,5.79960489 57.9318235,6.24048635 58.1302202,6.87976446 L60.2905393,6.87976446 C59.9598782,5.09419456 58.6592779,3.99199091 56.3666944,3.99199091 C54.2284193,3.99199091 52.6632901,5.29259121 52.6632901,7.05611704 C52.6632901,8.66533436 53.6993615,9.41483284 55.0881381,9.74549393 L57.1161928,10.2304635 C57.9318235,10.4288602 58.2624846,10.7154331 58.2624846,11.2444909 C58.2624846,12.0160334 57.6011624,12.4128268 56.5871351,12.4128268 C55.6171959,12.4128268 54.8897415,11.9939894 54.6472567,11.1783587 L52.3987612,11.1783587 Z M68.5791107,10.9579179 L70.6071654,10.9579179 C70.2765044,12.8977964 68.8436396,14.2204407 66.4849238,14.2204407 C63.7514588,14.2204407 61.8556685,12.1482979 61.8556685,9.12825989 C61.8556685,6.1963982 63.7735029,3.99199091 66.4408357,3.99199091 C69.1963448,3.99199091 70.6953417,5.9539134 70.6953417,8.81964287 L70.6953417,9.6132295 L64.0159877,9.6132295 C64.0821199,11.3326672 65.0741032,12.3687386 66.4849238,12.3687386 C67.5430393,12.3687386 68.3366259,11.9058131 68.5791107,10.9579179 Z M66.4628797,5.84369303 C65.2504557,5.84369303 64.3466487,6.59319151 64.0821199,8.00401218 L68.5129785,8.00401218 C68.4909344,6.81363224 67.8075682,5.84369303 66.4628797,5.84369303 Z M72.7233964,14 L74.9278037,14 L74.9278037,7.56313072 C75.1702885,6.59319151 76.0300074,5.99800154 76.9779025,5.99800154 C78.2344147,5.99800154 78.8296046,6.79158817 78.8296046,8.00401218 L78.8296046,14 L81.0340119,14 L81.0340119,7.62926294 C81.0340119,5.46894379 79.7995438,3.99199091 77.5730925,3.99199091 C76.4268007,3.99199091 75.4568615,4.52104866 74.9278037,5.1382827 L74.9278037,4.21243164 L72.7233964,4.21243164 L72.7233964,14 Z" id="J.-Jansen" opacity="0.600000024"></path>
                                <path d="M4.24348403,29.9432393 L1.56099591,25.5482022 L0.257640102,25.5482022 L3.62211673,31.0192656 L3.62211673,34.8535565 L4.80423013,34.8535565 L4.80423013,31.0192656 L8.19901736,25.5482022 L6.92597215,25.5482022 L4.24348403,29.9432393 Z M15.1553001,31.4890799 C15.1553001,33.5502007 13.8974102,34.9899542 12.0636189,34.9899542 C10.2146723,34.9899542 8.97193766,33.5502007 8.97193766,31.4890799 C8.97193766,29.427959 10.2146723,27.9882055 12.0636189,27.9882055 C13.8974102,27.9882055 15.1553001,29.427959 15.1553001,31.4890799 Z M14.0034973,31.4890799 C14.0034973,30.0190158 13.2760429,28.9884553 12.0636189,28.9884553 C10.8511949,28.9884553 10.1237405,30.0190158 10.1237405,31.4890799 C10.1237405,32.959144 10.8511949,33.9897044 12.0636189,33.9897044 C13.2760429,33.9897044 14.0034973,32.959144 14.0034973,31.4890799 Z M21.111333,34.3988975 L21.111333,33.8987726 C20.7779164,34.3685869 20.0656173,34.8080906 19.2320758,34.8080906 C17.2618868,34.8080906 16.2161711,33.1713182 16.2161711,31.3981481 C16.2161711,29.6098226 17.2618868,27.9882055 19.2320758,27.9882055 C20.0656173,27.9882055 20.7779164,28.4125539 21.111333,28.8823682 L21.111333,28.1246032 L22.2631359,28.1246032 L22.2631359,34.323121 C22.2631359,36.5357948 20.9900906,37.5815105 19.2623864,37.5815105 C17.625614,37.5815105 16.5950536,36.7328137 16.3828794,35.3536814 L17.5043716,35.3536814 C17.7013905,36.2023782 18.3379131,36.6115713 19.2623864,36.6115713 C20.4748104,36.6115713 21.111333,35.8538063 21.111333,34.3988975 Z M21.111333,32.7318145 L21.111333,30.0493264 C20.7627611,29.4128037 20.1262385,29.0036106 19.3987841,29.0036106 C18.1257389,29.0036106 17.3831292,30.0038605 17.3831292,31.3981481 C17.3831292,32.7772804 18.1257389,33.7775302 19.3987841,33.7775302 C20.1262385,33.7775302 20.7627611,33.3683371 21.111333,32.7318145 Z M29.1739527,34.8535565 L28.0827711,34.8535565 L28.0827711,34.3534316 C27.825131,34.626227 27.1128319,34.9747989 26.309601,34.9747989 C24.945624,34.9747989 23.8089765,34.1564127 23.8089765,32.8227463 C23.8089765,31.5648564 24.945624,30.7161596 26.3853775,30.7161596 C27.0825213,30.7161596 27.7948204,31.0041103 28.0827711,31.2617504 L28.0827711,30.4130536 C28.0827711,29.579512 27.5674909,28.9733 26.5975517,28.9733 C25.8852526,28.9733 25.4305936,29.276406 25.2184194,29.8977734 L24.0969272,29.8977734 C24.3242567,28.7611258 25.3245065,27.9882055 26.612707,27.9882055 C28.2191688,27.9882055 29.1739527,28.8975235 29.1739527,30.3675877 L29.1739527,34.8535565 Z M28.0827711,33.1864735 L28.0827711,32.4893297 C27.8857522,31.9892048 27.2037637,31.6557882 26.5066199,31.6557882 C25.6882337,31.6557882 24.9001581,32.0195154 24.9001581,32.8227463 C24.9001581,33.6411325 25.6882337,34.020015 26.5066199,34.020015 C27.2037637,34.020015 27.8857522,33.6865984 28.0827711,33.1864735 Z M40.904155,33.7775302 L35.5694894,33.7775302 L40.8435338,26.396899 L40.8435338,25.5482022 L34.1448911,25.5482022 L34.1448911,26.6090732 L39.3583144,26.6090732 L34.0691146,33.9897044 L34.0691146,34.8535565 L40.904155,34.8535565 L40.904155,33.7775302 Z M46.7995667,32.8379016 L47.875593,32.8379016 C47.6331082,34.1109468 46.6783243,34.9899542 45.1627943,34.9899542 C43.329003,34.9899542 42.0711131,33.5805113 42.0711131,31.5042352 C42.0711131,29.4885802 43.2986924,27.9882055 45.1324837,27.9882055 C46.9814303,27.9882055 47.9665248,29.3370272 47.9665248,31.292061 L47.9665248,31.7012541 L43.2077606,31.7012541 C43.2229159,33.1410076 44.0261468,34.020015 45.1627943,34.020015 C45.9963358,34.020015 46.6177031,33.5956666 46.7995667,32.8379016 Z M45.147639,28.9581447 C44.1322339,28.9581447 43.4047795,29.6552885 43.2380712,30.837402 L46.814722,30.837402 C46.7995667,29.8371521 46.2691312,28.9581447 45.147639,28.9581447 Z M49.4820549,34.8535565 L50.6187024,34.8535565 L50.6187024,30.2918112 C50.8611872,29.5643567 51.5431757,29.0339212 52.3312513,29.0339212 C53.3466564,29.0339212 53.8164707,29.6855991 53.8164707,30.6252278 L53.8164707,34.8535565 L54.9682735,34.8535565 L54.9682735,30.4433642 C54.9682735,28.9733 54.134732,27.9882055 52.6040467,27.9882055 C51.7401946,27.9882055 51.0127402,28.4428645 50.6187024,28.9733 L50.6187024,28.1246032 L49.4820549,28.1246032 L49.4820549,34.8535565 Z" id="Yoga-Zen"></path>
                            </g>
                        </g>
                        <g id="Group" transform="translate(513.247672, 28.995816)" opacity="0.5" fill="#000000">
                            <g id="Group-21">
                                <path d="M6.17679169,4.41658912 C6.17679169,5.438883 5.15449781,6.44188832 3.9393183,7.79208778 L0.42879969,11.6883777 L0.42879969,13 L8.31782227,13 L8.31782227,11.2447407 L3.16777575,11.2447407 L5.71386616,8.40932182 C6.92904568,7.03983379 8.12493664,5.84394284 8.12493664,4.39730056 C8.12493664,2.29484711 6.73616004,0.963936206 4.3636667,0.963936206 C2.16477043,0.963936206 0.640973891,2.50702131 0.409511126,4.70591758 L2.47338745,4.70591758 C2.5505417,3.58718088 3.18706431,2.73848407 4.3636667,2.73848407 C5.4824034,2.73848407 6.17679169,3.43287237 6.17679169,4.41658912 Z M15.8210736,1.15682184 L13.7957744,1.15682184 L9.34011615,9.14228725 L9.34011615,10.5310638 L14.6830483,10.5310638 L14.6830483,13 L16.5347504,13 L16.5347504,10.5310638 L18.4828954,10.5310638 L18.4828954,8.87224735 L16.5347504,8.87224735 L16.5347504,6.09469417 L14.6830483,6.09469417 L14.6830483,8.87224735 L11.5197239,8.87224735 L15.8210736,1.15682184 Z M28.0693116,1.15682184 L29.998168,1.15682184 L34.550269,13 L32.5056812,13 L31.2905017,9.72094416 L26.7576892,9.72094416 L25.5425097,13 L23.5172105,13 L28.0693116,1.15682184 Z M29.0144512,3.60646944 L27.3942118,7.98497342 L30.6346906,7.98497342 L29.0144512,3.60646944 Z M38.0607876,12.2670346 L38.0607876,16.2790558 L36.1319312,16.2790558 L36.1319312,4.43587768 L38.0607876,4.43587768 L38.0607876,5.16884311 C38.4465589,4.68662901 39.2952557,4.24299205 40.2403953,4.24299205 C42.7479086,4.24299205 44.2138395,6.32615693 44.2138395,8.71793884 C44.2138395,11.1097208 42.7479086,13.1928856 40.2403953,13.1928856 C39.2952557,13.1928856 38.4465589,12.7492487 38.0607876,12.2670346 Z M38.0607876,7.09769949 L38.0607876,10.3381782 C38.3886932,11.0132779 39.1216586,11.4762035 39.9124897,11.4762035 C41.3977091,11.4762035 42.2849831,10.2996011 42.2849831,8.71793884 C42.2849831,7.13627661 41.3977091,5.95967422 39.9124897,5.95967422 C39.1216586,5.95967422 38.3886932,6.42259975 38.0607876,7.09769949 Z M50.7912397,4.39730056 C50.6562198,4.3201463 50.2704485,4.24299205 49.8461001,4.24299205 C49.0166918,4.24299205 48.2644378,4.68662901 47.9365323,5.32315162 L47.9365323,4.43587768 L46.0076759,4.43587768 L46.0076759,13 L47.9365323,13 L47.9365323,7.4641822 C48.1294179,6.53833114 48.8623833,6.09469417 49.6532144,6.09469417 C50.0582743,6.09469417 50.5211998,6.19113699 50.7912397,6.38402263 L50.7912397,4.39730056 Z M54.4946439,4.43587768 L52.5657876,4.43587768 L52.5657876,13 L54.4946439,13 L54.4946439,4.43587768 Z M54.7261067,1.85121014 C54.7261067,1.19539897 54.1667384,0.674607749 53.5302158,0.674607749 C52.8936932,0.674607749 52.3343248,1.19539897 52.3343248,1.85121014 C52.3343248,2.50702131 52.8936932,3.02781253 53.5302158,3.02781253 C54.1667384,3.02781253 54.7261067,2.50702131 54.7261067,1.85121014 Z M58.8152822,0.462433548 L56.8864259,0.462433548 L56.8864259,13 L58.8152822,13 L58.8152822,0.462433548 Z" id="24-April" opacity="0.600000024"></path>
                                <path d="M13.5977905,26.9544035 L14.4010214,26.9544035 C14.3858661,27.1211118 14.3858661,27.2726648 14.3858661,27.4393731 C14.3858661,27.636392 14.3858661,27.8182556 14.4010214,28.0001192 L13.5977905,28.0001192 L13.5977905,28.9094372 L14.5222638,28.9094372 C14.9617675,30.970558 16.2954339,32.2284479 18.0079828,32.2284479 C19.5538234,32.2284479 20.645005,31.2888193 20.9935769,29.6823575 L19.9023953,29.6823575 C19.6295999,30.6068308 18.977922,31.1827322 18.0079828,31.1827322 C16.8410247,31.1827322 16.0226385,30.3037248 15.6892219,28.9094372 L18.2656229,28.9094372 L18.4474865,28.0001192 L15.5528242,28.0001192 C15.5376689,27.8182556 15.5376689,27.636392 15.5376689,27.4393731 C15.5376689,27.2726648 15.5376689,27.1211118 15.5528242,26.9544035 L18.5990395,26.9544035 L18.7809031,26.0450855 L15.6740666,26.0450855 C15.9923279,24.6204873 16.8258694,23.6960139 18.0079828,23.6960139 C18.977922,23.6960139 19.6295999,24.2719154 19.9023953,25.1963887 L20.9935769,25.1963887 C20.645005,23.5899268 19.5538234,22.6502982 18.0079828,22.6502982 C16.2802786,22.6502982 14.9163016,23.9384988 14.5071085,26.0450855 L13.5977905,26.0450855 L13.5977905,26.9544035 Z M29.9048934,25.2873205 C29.9048934,26.1663279 29.1471284,26.9392482 28.1771892,28.0001192 L25.1764398,31.3039746 L25.1764398,32.0920502 L31.2537151,32.0920502 L31.2537151,31.0311792 L26.8132122,31.0311792 L29.177439,28.4396229 C30.1170676,27.3787519 31.0566962,26.4542786 31.0566962,25.2721652 C31.0566962,23.6808586 29.9958252,22.6502982 28.2226551,22.6502982 C26.5101062,22.6502982 25.3583034,23.847567 25.1764398,25.5752712 L26.4040191,25.5752712 C26.4949509,24.4992449 27.1011629,23.7111692 28.2226551,23.7111692 C29.2532155,23.7111692 29.9048934,24.3325366 29.9048934,25.2873205 Z M35.7396839,32.2284479 C33.6634078,32.2284479 32.2691202,30.2734142 32.2691202,27.4393731 C32.2691202,24.605332 33.6634078,22.6502982 35.7396839,22.6502982 C37.8159601,22.6502982 39.2102477,24.605332 39.2102477,27.4393731 C39.2102477,30.2734142 37.8159601,32.2284479 35.7396839,32.2284479 Z M35.7396839,23.7263245 C34.2241539,23.7263245 33.4360783,25.2721652 33.4360783,27.4393731 C33.4360783,29.606581 34.2241539,31.1524216 35.7396839,31.1524216 C37.2400586,31.1524216 38.0432896,29.606581 38.0432896,27.4393731 C38.0432896,25.2721652 37.2400586,23.7263245 35.7396839,23.7263245 Z M40.0134786,33.7136673 L40.7863989,33.7136673 L41.5896298,32.3800009 C41.7714934,32.0920502 41.9230464,31.7434783 41.9230464,31.425217 C41.9230464,30.8644709 41.5744745,30.5462096 41.1198155,30.5462096 C40.6651565,30.5462096 40.3014293,30.8796262 40.3014293,31.3494405 C40.3014293,31.7889442 40.58938,32.0465843 40.9682625,32.1072055 L40.0134786,33.7136673 Z M46.4847917,32.2284479 C44.4085156,32.2284479 43.014228,30.2734142 43.014228,27.4393731 C43.014228,24.605332 44.4085156,22.6502982 46.4847917,22.6502982 C48.5610678,22.6502982 49.9553554,24.605332 49.9553554,27.4393731 C49.9553554,30.2734142 48.5610678,32.2284479 46.4847917,32.2284479 Z M46.4847917,23.7263245 C44.9692617,23.7263245 44.1811861,25.2721652 44.1811861,27.4393731 C44.1811861,29.606581 44.9692617,31.1524216 46.4847917,31.1524216 C47.9851664,31.1524216 48.7883973,29.606581 48.7883973,27.4393731 C48.7883973,25.2721652 47.9851664,23.7263245 46.4847917,23.7263245 Z M54.6383432,32.2284479 C52.5620671,32.2284479 51.1677794,30.2734142 51.1677794,27.4393731 C51.1677794,24.605332 52.5620671,22.6502982 54.6383432,22.6502982 C56.7146193,22.6502982 58.1089069,24.605332 58.1089069,27.4393731 C58.1089069,30.2734142 56.7146193,32.2284479 54.6383432,32.2284479 Z M54.6383432,23.7263245 C53.1228132,23.7263245 52.3347376,25.2721652 52.3347376,27.4393731 C52.3347376,29.606581 53.1228132,31.1524216 54.6383432,31.1524216 C56.1387179,31.1524216 56.9419488,29.606581 56.9419488,27.4393731 C56.9419488,25.2721652 56.1387179,23.7263245 54.6383432,23.7263245 Z" id="€-20,00"></path>
                            </g>
                        </g>
                        <ellipse id="Oval-4" fill="#E5E5EA" opacity="0.900000036" cx="31.6945996" cy="45.5648536" rx="4.13407821" ry="4.14225941"></ellipse>
                        <g id="Group-67" transform="translate(597.000000, 22.000000)">
                            <rect id="Rectangle-15" fill="#000000" x="0" y="0" width="46.7368421" height="46.6666667" rx="7.66284596"></rect>
                            <g id="Group-66" transform="translate(7.578947, 13.333333)">
                                <g id="Group-5">
                                    <circle id="Oval-2" fill="#E7001A" cx="10.2631579" cy="10.3333333" r="10"></circle>
                                    <circle id="Oval-2" fill="#F49B1C" cx="21.6315789" cy="10.3333333" r="10"></circle>
                                    <path d="M15.937799,1.97339058 C18.5630502,3.93155264 20.2440191,6.95203105 20.2440191,10.3801653 C20.2440191,13.650778 18.5630502,16.6038062 15.937799,18.5330863 C13.3125479,16.6038062 11.6315789,13.650778 11.6315789,10.3801653 C11.6315789,6.95203105 13.3125479,3.93155264 15.937799,1.97339058 Z" id="Combined-Shape" fill="#FF5F00"></path>
                                </g>
                            </g>
                        </g>
                    </g>
                    <g id="Group-68">
                        <rect id="Mask" fill="#FFFFFF" x="0" y="0" width="665.586592" height="89.748954" rx="8.26652733"></rect>
                        <g id="Group-2" opacity="0.5" transform="translate(56.499069, 30.376569)" fill="#000000">
                            <g id="Group-69">
                                <path d="M0.330661093,10.054111 C0.529057749,12.4569149 2.00601063,14.2204407 4.91582825,14.2204407 C7.69338144,14.2204407 9.45690727,12.5450912 9.45690727,9.32665655 L9.45690727,0.46493925 L7.16432369,0.46493925 L7.16432369,9.32665655 C7.16432369,11.2444909 6.41482521,12.1262538 4.87174011,12.1262538 C3.57113981,12.1262538 2.86572947,11.3547113 2.71142096,10.054111 L0.330661093,10.054111 Z M11.3967857,12.6332675 C11.3967857,13.4929863 12.0581079,14.1543085 12.8957826,14.1543085 C13.7334574,14.1543085 14.3947796,13.4929863 14.3947796,12.6332675 C14.3947796,11.7735486 13.7334574,11.1122265 12.8957826,11.1122265 C12.0581079,11.1122265 11.3967857,11.7735486 11.3967857,12.6332675 Z M20.3025911,10.054111 C20.5009878,12.4569149 21.9779407,14.2204407 24.8877583,14.2204407 C27.6653115,14.2204407 29.4288373,12.5450912 29.4288373,9.32665655 L29.4288373,0.46493925 L27.1362537,0.46493925 L27.1362537,9.32665655 C27.1362537,11.2444909 26.3867552,12.1262538 24.8436701,12.1262538 C23.5430698,12.1262538 22.8376595,11.3547113 22.683351,10.054111 L20.3025911,10.054111 Z M39.5691108,14 L37.4749239,14 L37.4749239,13.4488982 C37.1442628,13.7795593 36.1522795,14.1763526 35.0500759,14.1763526 C33.0440653,14.1763526 31.3907598,12.9859726 31.3907598,10.979962 C31.3907598,9.12825989 33.0440653,7.82765959 35.2043844,7.82765959 C36.0861473,7.82765959 37.0781306,8.13627661 37.4749239,8.42284956 L37.4749239,7.62926294 C37.4749239,6.63727966 36.8576899,5.86573711 35.6011777,5.86573711 C34.7194148,5.86573711 34.168313,6.24048635 33.9258282,6.9238526 L31.8095972,6.9238526 C32.0961701,5.24850307 33.6392552,3.99199091 35.6452659,3.99199091 C38.114202,3.99199091 39.5691108,5.35872343 39.5691108,7.58517479 L39.5691108,14 Z M37.4749239,11.3987994 L37.4749239,10.5831687 C37.2324391,9.96593466 36.3506762,9.59118542 35.4689133,9.59118542 C34.47693,9.59118542 33.4408586,10.0100228 33.4408586,10.979962 C33.4408586,11.9719453 34.47693,12.3907827 35.4689133,12.3907827 C36.3506762,12.3907827 37.2324391,12.0160334 37.4749239,11.3987994 Z M42.1703114,14 L44.3747187,14 L44.3747187,7.56313072 C44.6172035,6.59319151 45.4769224,5.99800154 46.4248175,5.99800154 C47.6813296,5.99800154 48.2765196,6.79158817 48.2765196,8.00401218 L48.2765196,14 L50.4809269,14 L50.4809269,7.62926294 C50.4809269,5.46894379 49.2464588,3.99199091 47.0200075,3.99199091 C45.8737157,3.99199091 44.9037765,4.52104866 44.3747187,5.1382827 L44.3747187,4.21243164 L42.1703114,4.21243164 L42.1703114,14 Z M52.3987612,11.1783587 C52.6853342,13.0741489 54.2725074,14.2204407 56.565091,14.2204407 C58.7694983,14.2204407 60.3787156,13.0300608 60.3787156,11.0901824 C60.3787156,9.65731764 59.5410409,8.70942251 57.8656913,8.3126292 L55.7935485,7.82765959 C55.0881381,7.65130701 54.7795211,7.36473406 54.7795211,6.9238526 C54.7795211,6.15231005 55.5731077,5.79960489 56.3446503,5.79960489 C57.3586776,5.79960489 57.9318235,6.24048635 58.1302202,6.87976446 L60.2905393,6.87976446 C59.9598782,5.09419456 58.6592779,3.99199091 56.3666944,3.99199091 C54.2284193,3.99199091 52.6632901,5.29259121 52.6632901,7.05611704 C52.6632901,8.66533436 53.6993615,9.41483284 55.0881381,9.74549393 L57.1161928,10.2304635 C57.9318235,10.4288602 58.2624846,10.7154331 58.2624846,11.2444909 C58.2624846,12.0160334 57.6011624,12.4128268 56.5871351,12.4128268 C55.6171959,12.4128268 54.8897415,11.9939894 54.6472567,11.1783587 L52.3987612,11.1783587 Z M68.5791107,10.9579179 L70.6071654,10.9579179 C70.2765044,12.8977964 68.8436396,14.2204407 66.4849238,14.2204407 C63.7514588,14.2204407 61.8556685,12.1482979 61.8556685,9.12825989 C61.8556685,6.1963982 63.7735029,3.99199091 66.4408357,3.99199091 C69.1963448,3.99199091 70.6953417,5.9539134 70.6953417,8.81964287 L70.6953417,9.6132295 L64.0159877,9.6132295 C64.0821199,11.3326672 65.0741032,12.3687386 66.4849238,12.3687386 C67.5430393,12.3687386 68.3366259,11.9058131 68.5791107,10.9579179 Z M66.4628797,5.84369303 C65.2504557,5.84369303 64.3466487,6.59319151 64.0821199,8.00401218 L68.5129785,8.00401218 C68.4909344,6.81363224 67.8075682,5.84369303 66.4628797,5.84369303 Z M72.7233964,14 L74.9278037,14 L74.9278037,7.56313072 C75.1702885,6.59319151 76.0300074,5.99800154 76.9779025,5.99800154 C78.2344147,5.99800154 78.8296046,6.79158817 78.8296046,8.00401218 L78.8296046,14 L81.0340119,14 L81.0340119,7.62926294 C81.0340119,5.46894379 79.7995438,3.99199091 77.5730925,3.99199091 C76.4268007,3.99199091 75.4568615,4.52104866 74.9278037,5.1382827 L74.9278037,4.21243164 L72.7233964,4.21243164 L72.7233964,14 Z" id="J.-Jansen" opacity="0.600000024"></path>
                                <path d="M4.24348403,29.9432393 L1.56099591,25.5482022 L0.257640102,25.5482022 L3.62211673,31.0192656 L3.62211673,34.8535565 L4.80423013,34.8535565 L4.80423013,31.0192656 L8.19901736,25.5482022 L6.92597215,25.5482022 L4.24348403,29.9432393 Z M15.1553001,31.4890799 C15.1553001,33.5502007 13.8974102,34.9899542 12.0636189,34.9899542 C10.2146723,34.9899542 8.97193766,33.5502007 8.97193766,31.4890799 C8.97193766,29.427959 10.2146723,27.9882055 12.0636189,27.9882055 C13.8974102,27.9882055 15.1553001,29.427959 15.1553001,31.4890799 Z M14.0034973,31.4890799 C14.0034973,30.0190158 13.2760429,28.9884553 12.0636189,28.9884553 C10.8511949,28.9884553 10.1237405,30.0190158 10.1237405,31.4890799 C10.1237405,32.959144 10.8511949,33.9897044 12.0636189,33.9897044 C13.2760429,33.9897044 14.0034973,32.959144 14.0034973,31.4890799 Z M21.111333,34.3988975 L21.111333,33.8987726 C20.7779164,34.3685869 20.0656173,34.8080906 19.2320758,34.8080906 C17.2618868,34.8080906 16.2161711,33.1713182 16.2161711,31.3981481 C16.2161711,29.6098226 17.2618868,27.9882055 19.2320758,27.9882055 C20.0656173,27.9882055 20.7779164,28.4125539 21.111333,28.8823682 L21.111333,28.1246032 L22.2631359,28.1246032 L22.2631359,34.323121 C22.2631359,36.5357948 20.9900906,37.5815105 19.2623864,37.5815105 C17.625614,37.5815105 16.5950536,36.7328137 16.3828794,35.3536814 L17.5043716,35.3536814 C17.7013905,36.2023782 18.3379131,36.6115713 19.2623864,36.6115713 C20.4748104,36.6115713 21.111333,35.8538063 21.111333,34.3988975 Z M21.111333,32.7318145 L21.111333,30.0493264 C20.7627611,29.4128037 20.1262385,29.0036106 19.3987841,29.0036106 C18.1257389,29.0036106 17.3831292,30.0038605 17.3831292,31.3981481 C17.3831292,32.7772804 18.1257389,33.7775302 19.3987841,33.7775302 C20.1262385,33.7775302 20.7627611,33.3683371 21.111333,32.7318145 Z M29.1739527,34.8535565 L28.0827711,34.8535565 L28.0827711,34.3534316 C27.825131,34.626227 27.1128319,34.9747989 26.309601,34.9747989 C24.945624,34.9747989 23.8089765,34.1564127 23.8089765,32.8227463 C23.8089765,31.5648564 24.945624,30.7161596 26.3853775,30.7161596 C27.0825213,30.7161596 27.7948204,31.0041103 28.0827711,31.2617504 L28.0827711,30.4130536 C28.0827711,29.579512 27.5674909,28.9733 26.5975517,28.9733 C25.8852526,28.9733 25.4305936,29.276406 25.2184194,29.8977734 L24.0969272,29.8977734 C24.3242567,28.7611258 25.3245065,27.9882055 26.612707,27.9882055 C28.2191688,27.9882055 29.1739527,28.8975235 29.1739527,30.3675877 L29.1739527,34.8535565 Z M28.0827711,33.1864735 L28.0827711,32.4893297 C27.8857522,31.9892048 27.2037637,31.6557882 26.5066199,31.6557882 C25.6882337,31.6557882 24.9001581,32.0195154 24.9001581,32.8227463 C24.9001581,33.6411325 25.6882337,34.020015 26.5066199,34.020015 C27.2037637,34.020015 27.8857522,33.6865984 28.0827711,33.1864735 Z M40.904155,33.7775302 L35.5694894,33.7775302 L40.8435338,26.396899 L40.8435338,25.5482022 L34.1448911,25.5482022 L34.1448911,26.6090732 L39.3583144,26.6090732 L34.0691146,33.9897044 L34.0691146,34.8535565 L40.904155,34.8535565 L40.904155,33.7775302 Z M46.7995667,32.8379016 L47.875593,32.8379016 C47.6331082,34.1109468 46.6783243,34.9899542 45.1627943,34.9899542 C43.329003,34.9899542 42.0711131,33.5805113 42.0711131,31.5042352 C42.0711131,29.4885802 43.2986924,27.9882055 45.1324837,27.9882055 C46.9814303,27.9882055 47.9665248,29.3370272 47.9665248,31.292061 L47.9665248,31.7012541 L43.2077606,31.7012541 C43.2229159,33.1410076 44.0261468,34.020015 45.1627943,34.020015 C45.9963358,34.020015 46.6177031,33.5956666 46.7995667,32.8379016 Z M45.147639,28.9581447 C44.1322339,28.9581447 43.4047795,29.6552885 43.2380712,30.837402 L46.814722,30.837402 C46.7995667,29.8371521 46.2691312,28.9581447 45.147639,28.9581447 Z M49.4820549,34.8535565 L50.6187024,34.8535565 L50.6187024,30.2918112 C50.8611872,29.5643567 51.5431757,29.0339212 52.3312513,29.0339212 C53.3466564,29.0339212 53.8164707,29.6855991 53.8164707,30.6252278 L53.8164707,34.8535565 L54.9682735,34.8535565 L54.9682735,30.4433642 C54.9682735,28.9733 54.134732,27.9882055 52.6040467,27.9882055 C51.7401946,27.9882055 51.0127402,28.4428645 50.6187024,28.9733 L50.6187024,28.1246032 L49.4820549,28.1246032 L49.4820549,34.8535565 Z" id="Yoga-Zen"></path>
                            </g>
                        </g>
                        <g id="Group" transform="translate(512.247672, 28.995816)" opacity="0.5" fill="#000000">
                            <g id="Group-21">
                                <path d="M5.97542611,4.41658912 C5.97542611,5.438883 4.95313223,6.44188832 3.73795271,7.79208778 L0.227434102,11.6883777 L0.227434102,13 L8.11645669,13 L8.11645669,11.2447407 L2.96641016,11.2447407 L5.51250058,8.40932182 C6.72768009,7.03983379 7.92357105,5.84394284 7.92357105,4.39730056 C7.92357105,2.29484711 6.53479446,0.963936206 4.16230111,0.963936206 C1.96340484,0.963936206 0.439608304,2.50702131 0.208145538,4.70591758 L2.27202186,4.70591758 C2.34917612,3.58718088 2.98569872,2.73848407 4.16230111,2.73848407 C5.28103781,2.73848407 5.97542611,3.43287237 5.97542611,4.41658912 Z M15.619708,1.15682184 L13.5944088,1.15682184 L9.13875057,9.14228725 L9.13875057,10.5310638 L14.4816827,10.5310638 L14.4816827,13 L16.3333849,13 L16.3333849,10.5310638 L18.2815298,10.5310638 L18.2815298,8.87224735 L16.3333849,8.87224735 L16.3333849,6.09469417 L14.4816827,6.09469417 L14.4816827,8.87224735 L11.3183583,8.87224735 L15.619708,1.15682184 Z M23.2194021,9.54734708 C23.3929992,11.6498005 24.685333,13.1928856 27.2314234,13.1928856 C29.6617824,13.1928856 31.2048675,11.7269548 31.2048675,8.91082448 L31.2048675,1.15682184 L29.1988569,1.15682184 L29.1988569,8.91082448 C29.1988569,10.5889295 28.5430457,11.3604721 27.1928463,11.3604721 C26.054821,11.3604721 25.437587,10.6853723 25.302567,9.54734708 L23.2194021,9.54734708 Z M40.5983981,4.43587768 L38.6695417,4.43587768 L38.6695417,10.0681383 C38.4573675,10.9168351 37.7244021,11.4376263 36.8949938,11.4376263 C35.7955457,11.4376263 35.294043,10.743238 35.294043,9.68236703 L35.294043,4.43587768 L33.3651867,4.43587768 L33.3651867,10.0102726 C33.3651867,11.9005519 34.4260577,13.1928856 36.3742026,13.1928856 C37.3772079,13.1928856 38.2066162,12.7299601 38.6695417,12.1898803 L38.6695417,13 L40.5983981,13 L40.5983981,4.43587768 Z M42.99018,13 L44.9190364,13 L44.9190364,7.36773938 C45.1312106,6.51904257 45.8834646,5.99825135 46.7128728,5.99825135 C47.8123209,5.99825135 48.3331122,6.69263965 48.3331122,7.75351065 L48.3331122,13 L50.2619685,13 L50.2619685,7.42560507 C50.2619685,5.53532582 49.181809,4.24299205 47.233664,4.24299205 C46.2306587,4.24299205 45.3819619,4.70591758 44.9190364,5.24599736 L44.9190364,4.43587768 L42.99018,4.43587768 L42.99018,13 Z M57.8230855,10.3381782 L59.5976334,10.3381782 C59.3083049,12.0355718 58.0545483,13.1928856 55.990672,13.1928856 C53.5988901,13.1928856 51.9400736,11.3797606 51.9400736,8.73722741 C51.9400736,6.17184842 53.6181786,4.24299205 55.9520948,4.24299205 C58.3631653,4.24299205 59.6747877,5.95967422 59.6747877,8.46718751 L59.6747877,9.16157581 L53.8303528,9.16157581 C53.8882185,10.6660838 54.7562039,11.5726463 55.990672,11.5726463 C56.916523,11.5726463 57.6109113,11.1675864 57.8230855,10.3381782 Z M55.9713834,5.8632314 C54.9105124,5.8632314 54.1196813,6.51904257 53.8882185,7.75351065 L57.7652198,7.75351065 C57.7459313,6.71192821 57.1479858,5.8632314 55.9713834,5.8632314 Z" id="24-June" opacity="0.600000024"></path>
                                <path d="M14.5977905,26.9544035 L15.4010214,26.9544035 C15.3858661,27.1211118 15.3858661,27.2726648 15.3858661,27.4393731 C15.3858661,27.636392 15.3858661,27.8182556 15.4010214,28.0001192 L14.5977905,28.0001192 L14.5977905,28.9094372 L15.5222638,28.9094372 C15.9617675,30.970558 17.2954339,32.2284479 19.0079828,32.2284479 C20.5538234,32.2284479 21.645005,31.2888193 21.9935769,29.6823575 L20.9023953,29.6823575 C20.6295999,30.6068308 19.977922,31.1827322 19.0079828,31.1827322 C17.8410247,31.1827322 17.0226385,30.3037248 16.6892219,28.9094372 L19.2656229,28.9094372 L19.4474865,28.0001192 L16.5528242,28.0001192 C16.5376689,27.8182556 16.5376689,27.636392 16.5376689,27.4393731 C16.5376689,27.2726648 16.5376689,27.1211118 16.5528242,26.9544035 L19.5990395,26.9544035 L19.7809031,26.0450855 L16.6740666,26.0450855 C16.9923279,24.6204873 17.8258694,23.6960139 19.0079828,23.6960139 C19.977922,23.6960139 20.6295999,24.2719154 20.9023953,25.1963887 L21.9935769,25.1963887 C21.645005,23.5899268 20.5538234,22.6502982 19.0079828,22.6502982 C17.2802786,22.6502982 15.9163016,23.9384988 15.5071085,26.0450855 L14.5977905,26.0450855 L14.5977905,26.9544035 Z M30.9048934,25.2873205 C30.9048934,26.1663279 30.1471284,26.9392482 29.1771892,28.0001192 L26.1764398,31.3039746 L26.1764398,32.0920502 L32.2537151,32.0920502 L32.2537151,31.0311792 L27.8132122,31.0311792 L30.177439,28.4396229 C31.1170676,27.3787519 32.0566962,26.4542786 32.0566962,25.2721652 C32.0566962,23.6808586 30.9958252,22.6502982 29.2226551,22.6502982 C27.5101062,22.6502982 26.3583034,23.847567 26.1764398,25.5752712 L27.4040191,25.5752712 C27.4949509,24.4992449 28.1011629,23.7111692 29.2226551,23.7111692 C30.2532155,23.7111692 30.9048934,24.3325366 30.9048934,25.2873205 Z M36.7396839,32.2284479 C34.6634078,32.2284479 33.2691202,30.2734142 33.2691202,27.4393731 C33.2691202,24.605332 34.6634078,22.6502982 36.7396839,22.6502982 C38.8159601,22.6502982 40.2102477,24.605332 40.2102477,27.4393731 C40.2102477,30.2734142 38.8159601,32.2284479 36.7396839,32.2284479 Z M36.7396839,23.7263245 C35.2241539,23.7263245 34.4360783,25.2721652 34.4360783,27.4393731 C34.4360783,29.606581 35.2241539,31.1524216 36.7396839,31.1524216 C38.2400586,31.1524216 39.0432896,29.606581 39.0432896,27.4393731 C39.0432896,25.2721652 38.2400586,23.7263245 36.7396839,23.7263245 Z M41.0134786,33.7136673 L41.7863989,33.7136673 L42.5896298,32.3800009 C42.7714934,32.0920502 42.9230464,31.7434783 42.9230464,31.425217 C42.9230464,30.8644709 42.5744745,30.5462096 42.1198155,30.5462096 C41.6651565,30.5462096 41.3014293,30.8796262 41.3014293,31.3494405 C41.3014293,31.7889442 41.58938,32.0465843 41.9682625,32.1072055 L41.0134786,33.7136673 Z M47.4847917,32.2284479 C45.4085156,32.2284479 44.014228,30.2734142 44.014228,27.4393731 C44.014228,24.605332 45.4085156,22.6502982 47.4847917,22.6502982 C49.5610678,22.6502982 50.9553554,24.605332 50.9553554,27.4393731 C50.9553554,30.2734142 49.5610678,32.2284479 47.4847917,32.2284479 Z M47.4847917,23.7263245 C45.9692617,23.7263245 45.1811861,25.2721652 45.1811861,27.4393731 C45.1811861,29.606581 45.9692617,31.1524216 47.4847917,31.1524216 C48.9851664,31.1524216 49.7883973,29.606581 49.7883973,27.4393731 C49.7883973,25.2721652 48.9851664,23.7263245 47.4847917,23.7263245 Z M55.6383432,32.2284479 C53.5620671,32.2284479 52.1677794,30.2734142 52.1677794,27.4393731 C52.1677794,24.605332 53.5620671,22.6502982 55.6383432,22.6502982 C57.7146193,22.6502982 59.1089069,24.605332 59.1089069,27.4393731 C59.1089069,30.2734142 57.7146193,32.2284479 55.6383432,32.2284479 Z M55.6383432,23.7263245 C54.1228132,23.7263245 53.3347376,25.2721652 53.3347376,27.4393731 C53.3347376,29.606581 54.1228132,31.1524216 55.6383432,31.1524216 C57.1387179,31.1524216 57.9419488,29.606581 57.9419488,27.4393731 C57.9419488,25.2721652 57.1387179,23.7263245 55.6383432,23.7263245 Z" id="€-20,00"></path>
                            </g>
                        </g>
                        <ellipse id="Oval-4" fill="#E5E5EA" opacity="0.900000036" cx="31.6945996" cy="45.5648536" rx="4.13407821" ry="4.14225941"></ellipse>
                        <g id="Group-67" transform="translate(597.000000, 21.000000)">
                            <rect id="Rectangle-15" fill="#000000" x="0" y="0" width="46.7368421" height="46.6666667" rx="7.66284596"></rect>
                            <g id="Group-66" transform="translate(7.578947, 13.333333)">
                                <g id="Group-5">
                                    <circle id="Oval-2" fill="#E7001A" cx="10.2631579" cy="10.3333333" r="10"></circle>
                                    <circle id="Oval-2" fill="#F49B1C" cx="21.6315789" cy="10.3333333" r="10"></circle>
                                    <path d="M15.937799,1.97339058 C18.5630502,3.93155264 20.2440191,6.95203105 20.2440191,10.3801653 C20.2440191,13.650778 18.5630502,16.6038062 15.937799,18.5330863 C13.3125479,16.6038062 11.6315789,13.650778 11.6315789,10.3801653 C11.6315789,6.95203105 13.3125479,3.93155264 15.937799,1.97339058 Z" id="Combined-Shape" fill="#FF5F00"></path>
                                </g>
                            </g>
                        </g>
                    </g>
                </g>
                <g id="Group-4" transform="translate(0.000000, 117.364017)">
                    <g id="Group-13">
                        <mask id="mask-2" fill="white">
                            <use xlink:href="#path-1"></use>
                        </mask>
                        <g id="Mask">
                            <use fill="black" fill-opacity="1" filter="url(#filter-3)" xlink:href="#path-1"></use>
                            <use fill="#FFFFFF" fill-rule="evenodd" xlink:href="#path-1"></use>
                        </g>
                    </g>
                    <g id="Group-2" transform="translate(57.877095, 27.234310)" fill="#000000">
                        <path d="M0.454659003,13.5744026 C0.727454405,16.878258 2.75826462,19.303106 6.75926385,19.303106 C10.5783995,19.303106 13.0032475,16.9995004 13.0032475,12.5741528 L13.0032475,0.389291468 L9.85094507,0.389291468 L9.85094507,12.5741528 C9.85094507,15.211175 8.82038466,16.423599 6.69864265,16.423599 C4.91031723,16.423599 3.94037803,15.362728 3.72820383,13.5744026 L0.454659003,13.5744026 Z M15.6705803,17.1207428 C15.6705803,18.3028562 16.5798983,19.2121742 17.7317011,19.2121742 C18.8835039,19.2121742 19.7928219,18.3028562 19.7928219,17.1207428 C19.7928219,15.9386294 18.8835039,15.0293114 17.7317011,15.0293114 C16.5798983,15.0293114 15.6705803,15.9386294 15.6705803,17.1207428 Z M27.9160628,13.5744026 C28.1888582,16.878258 30.2196684,19.303106 34.2206676,19.303106 C38.0398033,19.303106 40.4646513,16.9995004 40.4646513,12.5741528 L40.4646513,0.389291468 L37.3123489,0.389291468 L37.3123489,12.5741528 C37.3123489,15.211175 36.2817885,16.423599 34.1600464,16.423599 C32.371721,16.423599 31.4017818,15.362728 31.1896076,13.5744026 L27.9160628,13.5744026 Z M54.4075274,19 L51.5280204,19 L51.5280204,18.242235 C51.0733614,18.696894 49.7093844,19.2424848 48.1938543,19.2424848 C45.4355897,19.2424848 43.1622947,17.6057124 43.1622947,14.8474478 C43.1622947,12.3013574 45.4355897,10.5130319 48.4060285,10.5130319 C49.6184526,10.5130319 50.9824296,10.9373803 51.5280204,11.3314181 L51.5280204,10.2402365 C51.5280204,8.87625953 50.6793236,7.81538852 48.9516193,7.81538852 C47.7391953,7.81538852 46.9814303,8.33066872 46.6480137,9.27029733 L43.7381961,9.27029733 C44.1322339,6.96669171 46.2539759,5.2389875 49.0122405,5.2389875 C52.4070278,5.2389875 54.4075274,7.11824472 54.4075274,10.1796153 L54.4075274,19 Z M51.5280204,15.4233492 L51.5280204,14.301857 C51.1946038,13.4531602 49.9821798,12.93788 48.7697557,12.93788 C47.4057787,12.93788 45.9811805,13.5137814 45.9811805,14.8474478 C45.9811805,16.2114248 47.4057787,16.7873262 48.7697557,16.7873262 C49.9821798,16.7873262 51.1946038,16.272046 51.5280204,15.4233492 Z M57.9841782,19 L61.0152382,19 L61.0152382,10.1493047 C61.3486548,8.81563833 62.5307682,7.99725212 63.8341241,7.99725212 C65.5618283,7.99725212 66.3802145,9.08843373 66.3802145,10.7555167 L66.3802145,19 L69.4112745,19 L69.4112745,10.2402365 C69.4112745,7.26979772 67.7138809,5.2389875 64.6525103,5.2389875 C63.076359,5.2389875 61.7426926,5.96644191 61.0152382,6.81513871 L61.0152382,5.5420935 L57.9841782,5.5420935 L57.9841782,19 Z M72.0482967,15.1202432 C72.4423345,17.7269548 74.6246977,19.303106 77.7770002,19.303106 C80.8080602,19.303106 83.020734,17.6663336 83.020734,14.9990008 C83.020734,13.0288118 81.8689312,11.7254559 79.5653256,11.1798651 L76.7161291,10.5130319 C75.7461899,10.2705471 75.3218415,9.87650934 75.3218415,9.27029733 C75.3218415,8.20942632 76.4130231,7.72445672 77.4738941,7.72445672 C78.8681818,7.72445672 79.6562574,8.33066872 79.9290528,9.20967613 L82.8994916,9.20967613 C82.4448326,6.75451751 80.6565072,5.2389875 77.5042047,5.2389875 C74.5640765,5.2389875 72.4120239,7.02731292 72.4120239,9.45216093 C72.4120239,11.6648347 73.8366221,12.6953952 75.7461899,13.1500542 L78.5347652,13.8168874 C79.6562574,14.0896828 80.1109164,14.4837206 80.1109164,15.211175 C80.1109164,16.272046 79.2015984,16.8176368 77.8073108,16.8176368 C76.4736443,16.8176368 75.4733945,16.2417354 75.1399779,15.1202432 L72.0482967,15.1202432 Z M94.2962773,14.8171372 L97.0848525,14.8171372 C96.6301935,17.48447 94.6600045,19.303106 91.4167702,19.303106 C87.6582558,19.303106 85.0515442,16.4539096 85.0515442,12.3013574 C85.0515442,8.27004752 87.6885664,5.2389875 91.356149,5.2389875 C95.1449741,5.2389875 97.2060949,7.93663092 97.2060949,11.8770089 L97.2060949,12.9681906 L88.021983,12.9681906 C88.1129148,15.3324174 89.4768918,16.7570156 91.4167702,16.7570156 C92.8716791,16.7570156 93.9628607,16.120493 94.2962773,14.8171372 Z M91.3864596,7.78507792 C89.7193766,7.78507792 88.476642,8.81563833 88.1129148,10.7555167 L94.2053455,10.7555167 C94.1750349,9.11874433 93.2354063,7.78507792 91.3864596,7.78507792 Z M99.9946701,19 L103.02573,19 L103.02573,10.1493047 C103.359147,8.81563833 104.54126,7.99725212 105.844616,7.99725212 C107.57232,7.99725212 108.390706,9.08843373 108.390706,10.7555167 L108.390706,19 L111.421766,19 L111.421766,10.2402365 C111.421766,7.26979772 109.724373,5.2389875 106.663002,5.2389875 C105.086851,5.2389875 103.753185,5.96644191 103.02573,6.81513871 L103.02573,5.5420935 L99.9946701,5.5420935 L99.9946701,19 Z" id="J.-Jansen" opacity="0.600000024"></path>
                        <path d="M5.40079786,36.1270744 L1.98672207,30.5333909 L0.327905584,30.5333909 L4.60996674,37.4965624 L4.60996674,42.376569 L6.11447472,42.376569 L6.11447472,37.4965624 L10.435113,30.5333909 L8.81487364,30.5333909 L5.40079786,36.1270744 Z M19.2885638,38.0945079 C19.2885638,40.7177526 17.687613,42.5501661 15.3536968,42.5501661 C13.000492,42.5501661 11.4188298,40.7177526 11.4188298,38.0945079 C11.4188298,35.4712632 13.000492,33.6388496 15.3536968,33.6388496 C17.687613,33.6388496 19.2885638,35.4712632 19.2885638,38.0945079 Z M17.8226329,38.0945079 C17.8226329,36.2235172 16.8967819,34.9118949 15.3536968,34.9118949 C13.8106117,34.9118949 12.8847606,36.2235172 12.8847606,38.0945079 C12.8847606,39.9654986 13.8106117,41.2771209 15.3536968,41.2771209 C16.8967819,41.2771209 17.8226329,39.9654986 17.8226329,38.0945079 Z M26.8689693,41.7979121 L26.8689693,41.1613895 C26.4446209,41.759335 25.5380584,42.3187033 24.4771874,42.3187033 C21.9696741,42.3187033 20.6387632,40.2355385 20.6387632,37.9787765 C20.6387632,35.702726 21.9696741,33.6388496 24.4771874,33.6388496 C25.5380584,33.6388496 26.4446209,34.1789294 26.8689693,34.7768749 L26.8689693,33.8124467 L28.3349002,33.8124467 L28.3349002,41.7014693 C28.3349002,44.5175996 26.7146608,45.8485105 24.5157646,45.8485105 C22.4325997,45.8485105 21.1209773,44.7683509 20.8509374,43.0130916 L22.2782912,43.0130916 C22.5290425,44.0932512 23.3391622,44.6140424 24.5157646,44.6140424 C26.0588497,44.6140424 26.8689693,43.6496142 26.8689693,41.7979121 Z M26.8689693,39.6761701 L26.8689693,36.2620943 C26.4253324,35.4519746 25.6152127,34.9311834 24.6893616,34.9311834 C23.0691223,34.9311834 22.1239826,36.2042286 22.1239826,37.9787765 C22.1239826,39.7340358 23.0691223,41.007081 24.6893616,41.007081 C25.6152127,41.007081 26.4253324,40.4862898 26.8689693,39.6761701 Z M37.1304853,42.376569 L35.7417087,42.376569 L35.7417087,41.7400464 C35.4138031,42.0872406 34.5072406,42.5308775 33.4849467,42.5308775 C31.748976,42.5308775 30.3023337,41.4892951 30.3023337,39.7919015 C30.3023337,38.1909507 31.748976,37.1107911 33.5813895,37.1107911 C34.4686635,37.1107911 35.375226,37.4772738 35.7417087,37.8051794 L35.7417087,36.7250199 C35.7417087,35.6641488 35.0858975,34.8926063 33.8514294,34.8926063 C32.9448669,34.8926063 32.36621,35.2783776 32.0961701,36.0692087 L30.6688164,36.0692087 C30.9581449,34.6225664 32.2311901,33.6388496 33.870718,33.6388496 C35.9153057,33.6388496 37.1304853,34.7961635 37.1304853,36.6671542 L37.1304853,42.376569 Z M35.7417087,40.254827 L35.7417087,39.3675531 C35.4909573,38.7310305 34.622972,38.3066821 33.735698,38.3066821 C32.6941156,38.3066821 31.6911103,38.7696076 31.6911103,39.7919015 C31.6911103,40.8334839 32.6941156,41.315698 33.735698,41.315698 C34.622972,41.315698 35.4909573,40.8913496 35.7417087,40.254827 Z M52.0598336,41.007081 L45.2702592,41.007081 L51.9826794,31.6135505 L51.9826794,30.5333909 L43.4571342,30.5333909 L43.4571342,31.8835903 L50.0924001,31.8835903 L43.3606914,41.2771209 L43.3606914,42.376569 L52.0598336,42.376569 L52.0598336,41.007081 Z M59.5630849,39.8111901 L60.932573,39.8111901 C60.6239559,41.4314294 59.4087764,42.5501661 57.47992,42.5501661 C55.1460038,42.5501661 53.545053,40.7563297 53.545053,38.1137964 C53.545053,35.5484175 55.1074267,33.6388496 57.4413429,33.6388496 C59.7945477,33.6388496 61.0483043,35.3555318 61.0483043,37.8437566 L61.0483043,38.3645478 L54.9916953,38.3645478 C55.0109839,40.1969613 56.0332778,41.315698 57.47992,41.315698 C58.5407911,41.315698 59.3316222,40.7756182 59.5630849,39.8111901 Z M57.4606315,34.8733177 C56.1682977,34.8733177 55.2424466,35.7605917 55.0302724,37.2650996 L59.5823735,37.2650996 C59.5630849,35.9920544 58.8879852,34.8733177 57.4606315,34.8733177 Z M62.9771607,42.376569 L64.423803,42.376569 L64.423803,36.5707113 C64.73242,35.6448603 65.6004054,34.9697605 66.6034107,34.9697605 C67.8957445,34.9697605 68.49369,35.7991688 68.49369,36.9950597 L68.49369,42.376569 L69.9596208,42.376569 L69.9596208,36.763597 C69.9596208,34.8926063 68.8987498,33.6388496 66.9506049,33.6388496 C65.8511567,33.6388496 64.9253057,34.2175066 64.423803,34.8926063 L64.423803,33.8124467 L62.9771607,33.8124467 L62.9771607,42.376569 Z" id="Yoga-Zen" opacity="0.300000012"></path>
                    </g>
                    <g id="Group" transform="translate(564.990689, 23.092050)" fill="#000000">
                        <g id="Group-54">
                            <path d="M8.22002494,5.34493915 C8.22002494,6.659317 6.90564709,7.94889526 5.34327343,9.684866 L0.829749506,14.6943816 L0.829749506,16.3807531 L10.9727785,16.3807531 L10.9727785,14.1239912 L4.35129015,14.1239912 L7.62483497,10.4784526 C9.18720864,8.7176823 10.7247827,7.18010822 10.7247827,5.32013957 C10.7247827,2.61698513 8.93921282,0.905813974 5.88886423,0.905813974 C3.06171189,0.905813974 1.10254491,2.88978053 0.804949924,5.71693288 L3.4585052,5.71693288 C3.55770353,4.27855713 4.37608973,3.18737552 5.88886423,3.18737552 C7.32723999,3.18737552 8.22002494,4.08016047 8.22002494,5.34493915 Z M20.6198159,1.15380979 L18.0158598,1.15380979 L12.2871564,11.4208367 L12.2871564,13.2064066 L19.1566406,13.2064066 L19.1566406,16.3807531 L21.5374005,16.3807531 L21.5374005,13.2064066 L24.0421583,13.2064066 L24.0421583,11.0736426 L21.5374005,11.0736426 L21.5374005,7.50250278 L19.1566406,7.50250278 L19.1566406,11.0736426 L15.0895092,11.0736426 L20.6198159,1.15380979 Z M40.1866861,16.3807531 L44.2786172,5.79133163 L44.2786172,16.3807531 L46.7585754,16.3807531 L46.7585754,1.15380979 L43.8818238,1.15380979 L39.2939012,12.8592125 L34.6563793,1.15380979 L31.7052291,1.15380979 L31.7052291,16.3807531 L34.1603877,16.3807531 L34.1603877,5.79133163 L38.3515171,16.3807531 L40.1866861,16.3807531 Z M58.4639781,16.3807531 L56.1080178,16.3807531 L56.1080178,15.7607636 C55.736024,16.1327573 54.6200429,16.5791498 53.3800638,16.5791498 C51.1233018,16.5791498 49.2633331,15.2399724 49.2633331,12.9832104 C49.2633331,10.9000455 51.1233018,9.43687018 53.5536608,9.43687018 C54.5456441,9.43687018 55.6616253,9.78406433 56.1080178,10.1064589 L56.1080178,9.21367394 C56.1080178,8.09769275 55.4136295,7.22970738 54.0000533,7.22970738 C53.00807,7.22970738 52.3880805,7.65130028 52.1152851,8.42008732 L49.7345252,8.42008732 C50.0569198,6.53531909 51.7928905,5.12174291 54.0496525,5.12174291 C56.8272056,5.12174291 58.4639781,6.659317 58.4639781,9.16407478 L58.4639781,16.3807531 Z M56.1080178,13.4544025 L56.1080178,12.5368179 C55.8352224,11.8424296 54.8432391,11.4208367 53.8512558,11.4208367 C52.7352746,11.4208367 51.5696943,11.8920288 51.5696943,12.9832104 C51.5696943,14.0991916 52.7352746,14.5703837 53.8512558,14.5703837 C54.8432391,14.5703837 55.8352224,14.1487908 56.1080178,13.4544025 Z M65.407861,20.5966821 L71.2109632,5.36973873 L68.6566063,5.36973873 L65.8294539,13.479202 L62.9527024,5.36973873 L60.2991471,5.36973873 L64.5646752,16.6783481 L63.0023016,20.5966821 L65.407861,20.5966821 Z" id="24-May" opacity="0.600000024"></path>
                            <path d="M12.961603,35.8377459 L13.9838969,35.8377459 C13.9646083,36.0499201 13.9646083,36.2428058 13.9646083,36.45498 C13.9646083,36.7057313 13.9646083,36.9371941 13.9838969,37.1686568 L12.961603,37.1686568 L12.961603,38.3259706 L14.1382054,38.3259706 C14.6975737,40.9492153 16.3949673,42.5501661 18.574575,42.5501661 C20.5420085,42.5501661 21.9307851,41.3542752 22.3744221,39.3096874 L20.9856455,39.3096874 C20.6384514,40.4862898 19.8090431,41.2192552 18.574575,41.2192552 C17.0893556,41.2192552 16.0477732,40.1005185 15.6234248,38.3259706 L18.9024806,38.3259706 L19.1339434,37.1686568 L15.4498277,37.1686568 C15.4305391,36.9371941 15.4305391,36.7057313 15.4305391,36.45498 C15.4305391,36.2428058 15.4305391,36.0499201 15.4498277,35.8377459 L19.326829,35.8377459 L19.5582918,34.6804321 L15.6041362,34.6804321 C16.0091961,32.8673071 17.0700671,31.6907047 18.574575,31.6907047 C19.8090431,31.6907047 20.6384514,32.4236701 20.9856455,33.6002725 L22.3744221,33.6002725 C21.9307851,31.5556848 20.5420085,30.3597938 18.574575,30.3597938 C16.3756788,30.3597938 14.639708,31.9993217 14.1189168,34.6804321 L12.961603,34.6804321 L12.961603,35.8377459 Z M33.7160976,33.7160039 C33.7160976,34.8347406 32.7516694,35.8184574 31.5172013,37.1686568 L27.6980657,41.3735637 L27.6980657,42.376569 L35.4327798,42.376569 L35.4327798,41.0263696 L29.7812306,41.0263696 L32.7902465,37.7280252 C33.9861375,36.3778257 35.1820285,35.2012233 35.1820285,33.6967153 C35.1820285,31.6714161 33.831829,30.3597938 31.575067,30.3597938 C29.3954593,30.3597938 27.9295285,31.8835903 27.6980657,34.0824866 L29.2604394,34.0824866 C29.3761708,32.7129986 30.1477133,31.7099933 31.575067,31.7099933 C32.8866894,31.7099933 33.7160976,32.5008244 33.7160976,33.7160039 Z M41.1421947,42.5501661 C38.4996614,42.5501661 36.7251136,40.0619414 36.7251136,36.45498 C36.7251136,32.8480185 38.4996614,30.3597938 41.1421947,30.3597938 C43.7847279,30.3597938 45.5592758,32.8480185 45.5592758,36.45498 C45.5592758,40.0619414 43.7847279,42.5501661 41.1421947,42.5501661 Z M41.1421947,31.7292818 C39.2133383,31.7292818 38.210333,33.6967153 38.210333,36.45498 C38.210333,39.2132446 39.2133383,41.1806781 41.1421947,41.1806781 C43.0517625,41.1806781 44.0740564,39.2132446 44.0740564,36.45498 C44.0740564,33.6967153 43.0517625,31.7292818 41.1421947,31.7292818 Z M46.5815696,44.4404454 L47.5652864,44.4404454 L48.5875803,42.7430517 C48.819043,42.376569 49.0119287,41.9329321 49.0119287,41.5278722 C49.0119287,40.8141954 48.5682917,40.4091355 47.9896348,40.4091355 C47.4109779,40.4091355 46.9480524,40.8334839 46.9480524,41.4314294 C46.9480524,41.9907978 47.3145351,42.3187033 47.7967492,42.3958576 L46.5815696,44.4404454 Z M54.8177864,42.5501661 C52.1752531,42.5501661 50.4007053,40.0619414 50.4007053,36.45498 C50.4007053,32.8480185 52.1752531,30.3597938 54.8177864,30.3597938 C57.4603196,30.3597938 59.2348675,32.8480185 59.2348675,36.45498 C59.2348675,40.0619414 57.4603196,42.5501661 54.8177864,42.5501661 Z M54.8177864,31.7292818 C52.88893,31.7292818 51.8859247,33.6967153 51.8859247,36.45498 C51.8859247,39.2132446 52.88893,41.1806781 54.8177864,41.1806781 C56.7273542,41.1806781 57.7496481,39.2132446 57.7496481,36.45498 C57.7496481,33.6967153 56.7273542,31.7292818 54.8177864,31.7292818 Z M65.1950337,42.5501661 C62.5525004,42.5501661 60.7779526,40.0619414 60.7779526,36.45498 C60.7779526,32.8480185 62.5525004,30.3597938 65.1950337,30.3597938 C67.8375669,30.3597938 69.6121148,32.8480185 69.6121148,36.45498 C69.6121148,40.0619414 67.8375669,42.5501661 65.1950337,42.5501661 Z M65.1950337,31.7292818 C63.2661773,31.7292818 62.263172,33.6967153 62.263172,36.45498 C62.263172,39.2132446 63.2661773,41.1806781 65.1950337,41.1806781 C67.1046015,41.1806781 68.1268954,39.2132446 68.1268954,36.45498 C68.1268954,33.6967153 67.1046015,31.7292818 65.1950337,31.7292818 Z" id="€-20,00" opacity="0.5"></path>
                        </g>
                    </g>
                    <ellipse id="Oval-4" fill="#4CD964" opacity="0.900000036" cx="31.6945996" cy="48.3263598" rx="4.13407821" ry="4.14225941"></ellipse>
                    <g id="Group-67" transform="translate(665.000000, 23.000000)">
                        <rect id="Rectangle-15" fill="#000000" x="0" y="0" width="46.7368421" height="46.6666667" rx="7.66284596"></rect>
                        <g id="Group-66" transform="translate(7.578947, 13.333333)">
                            <g id="Group-5">
                                <circle id="Oval-2" fill="#E7001A" cx="10.2631579" cy="10.3333333" r="10"></circle>
                                <ellipse id="Oval-2" fill="#F49B1C" cx="21.6315789" cy="10.3333333" rx="10" ry="10"></ellipse>
                                <path d="M15.937799,1.97339058 C18.5630502,3.93155264 20.2440191,6.95203105 20.2440191,10.3801653 C20.2440191,13.650778 18.5630502,16.6038062 15.937799,18.5330863 C13.3125479,16.6038062 11.6315789,13.650778 11.6315789,10.3801653 C11.6315789,6.95203105 13.3125479,3.93155264 15.937799,1.97339058 Z" id="Combined-Shape" fill="#FF5F00"></path>
                            </g>
                        </g>
                    </g>
                </g>
            </g>
        </g>
    </g>
</svg>